<svg width="841" height="481" viewBox="0 0 841 481" fill="none" xmlns="http://www.w3.org/2000/svg">
<mask id="mask0" mask-type="alpha" maskUnits="userSpaceOnUse" x="0" y="0" width="841" height="481">
<rect x="840.361" y="480.686" width="840" height="480" transform="rotate(-180 840.361 480.686)" fill="#C7B9FF"/>
</mask>
<g mask="url(#mask0)">
<rect x="840.361" y="480.686" width="840" height="480" transform="rotate(-180 840.361 480.686)" fill="#C7B9FF"/>
<path opacity="0.4" d="M458.266 462.294C496.036 458.853 525.41 453.799 560.869 441.13C584.72 436.712 602.693 426.316 619.979 410.727C630.679 401.078 640.911 392.333 648.97 380.5C657.077 368.596 664.603 353.551 673.333 342.638C694.075 316.708 675.427 266.067 665.473 239.877C642.85 180.36 592.063 150.719 534.97 129.415C505.173 118.296 478.671 122.859 448.471 128.452C402.813 136.909 363.664 151.494 332.398 187.623C309.601 213.967 294.039 255.272 296.676 290.582C298.608 316.468 302.747 349.533 312.103 373.878C333.023 428.312 401.682 467.449 458.266 462.294Z" fill="#DDEAE1"/>
<path opacity="0.4" d="M602.779 125.312C590.948 86.2178 548.804 62.9624 514.806 45.7695C512.013 44.3573 512.027 44.8608 508.522 44.243C504.428 44.6827 499.4 46.1487 499.4 46.1487C499.4 46.1487 476.879 52.2047 470.06 60.4307C463.812 67.9674 459.116 76.7097 452.58 84.132C444.974 92.7688 439.535 104.357 434.391 114.528C418.744 145.47 404.744 199.162 412.754 233.62C418.442 258.09 423.192 294.026 444.981 310.213C453.701 319.528 476.891 318.727 489.893 321.555C519.216 327.932 542.108 299.392 563.719 280.833C588.526 259.528 596.524 224.553 602.818 193.905C607.498 171.114 609.608 147.878 602.779 125.312Z" fill="#DDEAE1"/>
</g>
<g filter="url(#filter0_d)">
<path d="M373.477 143.12H435.877V155.36H411.757V221H397.597V155.36H373.477V143.12Z" fill="#FEFEFE"/>
<path d="M459.544 172.16C463.544 164.8 469.384 161.12 477.064 161.12C484.744 161.12 490.384 163.48 493.984 168.2C497.664 172.92 499.504 179.16 499.504 186.92V221H485.344V186.92C485.344 182.6 484.304 179.36 482.224 177.2C480.144 174.96 477.224 173.84 473.464 173.84C469.704 173.84 466.464 175.52 463.744 178.88C461.104 182.24 459.704 187.28 459.544 194V221H445.384V138.68H459.544V172.16Z" fill="#FEFEFE"/>
<path d="M558.43 169.64C560.43 172.2 561.91 175.16 562.87 178.52C563.91 181.88 564.43 184.96 564.43 187.76C564.43 190.56 564.27 193.08 563.95 195.32H526.27C526.43 200.04 527.59 203.88 529.75 206.84C531.91 209.8 535.19 211.28 539.59 211.28C545.43 211.28 548.91 208.72 550.03 203.6H564.31C563.35 209.44 560.67 214.04 556.27 217.4C551.71 220.92 546.15 222.68 539.59 222.68C531.91 222.68 525.47 219.88 520.27 214.28C514.91 208.44 512.23 200.96 512.23 191.84C512.23 182.48 514.91 174.96 520.27 169.28C525.39 163.84 531.83 161.12 539.59 161.12C547.67 161.12 553.95 163.96 558.43 169.64ZM539.71 172.4C535.71 172.4 532.59 173.72 530.35 176.36C528.11 178.92 526.79 182.24 526.39 186.32H551.23C551.23 180 549.23 175.76 545.23 173.6C543.71 172.8 541.87 172.4 539.71 172.4Z" fill="#FEFEFE"/>
<path d="M613.174 143.12L632.134 203.24L651.334 143.12H666.214L639.454 221H624.574L598.174 143.12H613.174Z" fill="#FEFEFE"/>
<path d="M716.185 210.44C712.505 218.2 706.585 222.08 698.425 222.08C688.105 222.08 681.305 218.04 678.025 209.96C676.825 207.16 676.225 203.76 676.225 199.76V162.56H690.385V198.32C690.385 202.16 691.305 205.04 693.145 206.96C694.985 208.8 697.225 209.72 699.865 209.72C702.585 209.72 704.865 209.36 706.705 208.64C708.545 207.84 710.145 206.68 711.505 205.16C714.465 201.72 716.025 197.12 716.185 191.36V162.56H730.345V221H716.185V210.44Z" fill="#FEFEFE"/>
<path d="M790.939 169.64C792.939 172.2 794.419 175.16 795.379 178.52C796.419 181.88 796.939 184.96 796.939 187.76C796.939 190.56 796.779 193.08 796.459 195.32H758.779C758.939 200.04 760.099 203.88 762.259 206.84C764.419 209.8 767.699 211.28 772.099 211.28C777.939 211.28 781.419 208.72 782.539 203.6H796.819C795.859 209.44 793.179 214.04 788.779 217.4C784.219 220.92 778.659 222.68 772.099 222.68C764.419 222.68 757.979 219.88 752.779 214.28C747.419 208.44 744.739 200.96 744.739 191.84C744.739 182.48 747.419 174.96 752.779 169.28C757.899 163.84 764.339 161.12 772.099 161.12C780.179 161.12 786.459 163.96 790.939 169.64ZM772.219 172.4C768.219 172.4 765.099 173.72 762.859 176.36C760.619 178.92 759.299 182.24 758.899 186.32H783.739C783.739 180 781.739 175.76 777.739 173.6C776.219 172.8 774.379 172.4 772.219 172.4Z" fill="#FEFEFE"/>
<path d="M299.4 289.52C304.36 295.12 306.84 302.48 306.84 311.6C306.84 320.72 304.24 328.24 299.04 334.16C294 339.84 287.72 342.68 280.2 342.68C276.6 342.68 273.28 341.72 270.24 339.8C267.28 337.88 264.92 334.92 263.16 330.92L259.68 341H250.44V258.68H264.6V290C268.28 284.08 273.76 281.12 281.04 281.12C288.4 281.12 294.52 283.92 299.4 289.52ZM264.6 308.24V315.92C264.76 320 266.24 323.36 269.04 326C271.68 328.56 274.88 329.84 278.64 329.84C282.48 329.84 285.76 328.2 288.48 324.92C291.2 321.56 292.56 317.16 292.56 311.72C292.56 306.28 291.2 301.96 288.48 298.76C285.84 295.48 282.52 293.84 278.52 293.84C274.52 293.84 271.2 295.16 268.56 297.8C265.92 300.44 264.6 303.92 264.6 308.24Z" fill="#FEFEFE"/>
<path d="M344.671 281.12C348.591 281.12 352.271 281.76 355.711 283.04C359.151 284.24 362.111 286.12 364.591 288.68C370.111 294.28 372.871 302.04 372.871 311.96C372.871 321.72 370.111 329.4 364.591 335C359.631 340.12 352.991 342.68 344.671 342.68C336.351 342.68 329.631 340.12 324.511 335C318.991 329.48 316.231 321.8 316.231 311.96C316.231 301.96 318.991 294.2 324.511 288.68C329.551 283.64 336.271 281.12 344.671 281.12ZM358.711 311.84C358.711 305.68 357.511 301.08 355.111 298.04C352.711 294.92 349.351 293.36 345.031 293.36C340.791 293.36 337.311 294.92 334.591 298.04C331.871 301.08 330.511 305.68 330.511 311.84C330.511 318 331.711 322.64 334.111 325.76C336.591 328.8 339.951 330.32 344.191 330.32C348.431 330.32 351.911 328.8 354.631 325.76C357.351 322.64 358.711 318 358.711 311.84Z" fill="#FEFEFE"/>
<path d="M410.24 281.12C414.16 281.12 417.84 281.76 421.28 283.04C424.72 284.24 427.68 286.12 430.16 288.68C435.68 294.28 438.44 302.04 438.44 311.96C438.44 321.72 435.68 329.4 430.16 335C425.2 340.12 418.56 342.68 410.24 342.68C401.92 342.68 395.2 340.12 390.08 335C384.56 329.48 381.8 321.8 381.8 311.96C381.8 301.96 384.56 294.2 390.08 288.68C395.12 283.64 401.84 281.12 410.24 281.12ZM424.28 311.84C424.28 305.68 423.08 301.08 420.68 298.04C418.28 294.92 414.92 293.36 410.6 293.36C406.36 293.36 402.88 294.92 400.16 298.04C397.44 301.08 396.08 305.68 396.08 311.84C396.08 318 397.28 322.64 399.68 325.76C402.16 328.8 405.52 330.32 409.76 330.32C414 330.32 417.48 328.8 420.2 325.76C422.92 322.64 424.28 318 424.28 311.84Z" fill="#FEFEFE"/>
<path d="M485.769 339.56C480.489 341.64 476.329 342.68 473.289 342.68C470.249 342.68 467.569 342.32 465.249 341.6C463.009 340.88 461.009 339.8 459.249 338.36C455.569 335.08 453.729 330.56 453.729 324.8V292.16H445.569V282.68H453.729V267.32H467.889V282.68H483.729V292.16H467.889V324.32C467.889 329.12 470.169 331.52 474.729 331.52C477.049 331.52 480.049 330.88 483.729 329.6L485.769 339.56Z" fill="#FEFEFE"/>
<path d="M520.033 281.12C523.713 281.12 526.993 281.76 529.873 283.04C532.833 284.24 535.313 285.84 537.313 287.84C541.313 291.68 543.673 296.52 544.393 302.36L530.113 302.72C529.473 300.16 528.273 298.04 526.513 296.36C524.833 294.68 522.873 293.84 520.633 293.84C518.393 293.84 516.473 294.2 514.873 294.92C513.273 295.56 511.873 296.6 510.673 298.04C507.953 301.4 506.593 306.04 506.593 311.96C506.593 317.88 507.873 322.36 510.433 325.4C512.993 328.36 516.073 329.84 519.673 329.84C523.353 329.84 525.993 329 527.593 327.32C529.273 325.56 530.113 323.2 530.113 320.24H544.393C544.393 326.64 542.273 331.96 538.033 336.2C533.713 340.52 527.673 342.68 519.913 342.68C512.233 342.68 505.793 339.88 500.593 334.28C495.073 328.28 492.313 320.8 492.313 311.84C492.313 302.4 495.073 294.84 500.593 289.16C505.793 283.8 512.273 281.12 520.033 281.12Z" fill="#FEFEFE"/>
<path d="M578.265 306.92C582.905 306.92 588.265 307.68 594.345 309.2V303.44C594.345 299.36 593.505 296.36 591.825 294.44C590.225 292.44 587.545 291.44 583.785 291.44C580.105 291.44 577.265 292.2 575.265 293.72C573.265 295.16 572.265 297.24 572.265 299.96H556.785C556.785 293.32 559.105 288.52 563.745 285.56C568.465 282.6 575.025 281.12 583.425 281.12C595.425 281.12 603.185 285.32 606.705 293.72C607.905 296.6 608.505 300 608.505 303.92V341H596.145L595.065 333.2C591.305 339.52 585.545 342.68 577.785 342.68C570.265 342.68 564.425 340.84 560.265 337.16C556.425 333.64 554.505 329.2 554.505 323.84C554.505 318.4 556.625 314.24 560.865 311.36C565.105 308.4 570.905 306.92 578.265 306.92ZM594.345 318.2C589.625 316.92 585.225 316.28 581.145 316.28C573.465 316.28 569.625 318.84 569.625 323.96C569.625 326.12 570.505 328 572.265 329.6C574.025 331.12 576.825 331.88 580.665 331.88C584.585 331.88 587.785 330.6 590.265 328.04C592.825 325.4 594.185 322.12 594.345 318.2Z" fill="#FEFEFE"/>
<path d="M678.584 293.72C682.344 285.32 688.944 281.12 698.384 281.12C705.344 281.12 710.744 283.48 714.584 288.2C718.264 292.68 720.104 298.92 720.104 306.92V341H705.824V306.92C705.824 302.6 704.784 299.36 702.704 297.2C700.624 294.96 697.704 293.84 693.944 293.84C690.184 293.84 687.104 295.48 684.704 298.76C682.304 302.04 681.024 307 680.864 313.64V341H666.704V306.92C666.704 302.6 665.664 299.36 663.584 297.2C661.504 294.96 658.584 293.84 654.824 293.84C651.064 293.84 647.824 295.52 645.104 298.88C642.464 302.24 641.064 307.28 640.904 314V341H626.744V282.68H639.104L640.664 292.76C644.504 285 650.664 281.12 659.144 281.12C664.024 281.12 668.064 282.24 671.264 284.48C674.544 286.72 676.984 289.8 678.584 293.72Z" fill="#FEFEFE"/>
<path d="M751.21 290.6C754.89 284.28 760.49 281.12 768.01 281.12C775.21 281.12 781.37 283.84 786.49 289.28C791.93 295.04 794.65 302.56 794.65 311.84C794.65 321.2 791.89 328.76 786.37 334.52C781.25 339.96 775.13 342.68 768.01 342.68C760.89 342.68 755.69 340.56 752.41 336.32V369.44H738.25V282.68H749.89L751.21 290.6ZM765.49 329.84C767.17 329.84 768.89 329.48 770.65 328.76C772.49 328.04 774.13 326.92 775.57 325.4C778.77 322.04 780.37 317.56 780.37 311.96C780.37 306.28 778.97 301.84 776.17 298.64C773.45 295.44 770.09 293.84 766.09 293.84C762.17 293.84 758.93 295 756.37 297.32C753.89 299.56 752.57 302.8 752.41 307.04V317.48C752.41 321.24 753.73 324.28 756.37 326.6C758.85 328.76 761.89 329.84 765.49 329.84Z" fill="#FEFEFE"/>
</g>
<defs>
<filter id="filter0_d" x="244.44" y="133.68" width="558.499" height="242.76" filterUnits="userSpaceOnUse" color-interpolation-filters="sRGB">
<feFlood flood-opacity="0" result="BackgroundImageFix"/>
<feColorMatrix in="SourceAlpha" type="matrix" values="0 0 0 0 0 0 0 0 0 0 0 0 0 0 0 0 0 0 127 0"/>
<feOffset dy="1"/>
<feGaussianBlur stdDeviation="3"/>
<feColorMatrix type="matrix" values="0 0 0 0 0 0 0 0 0 0 0 0 0 0 0 0 0 0 0.15 0"/>
<feBlend mode="normal" in2="BackgroundImageFix" result="effect1_dropShadow"/>
<feBlend mode="normal" in="SourceGraphic" in2="effect1_dropShadow" result="shape"/>
</filter>
</defs>
</svg>
