<svg fill="none" viewBox="0 0 841 480" xmlns="http://www.w3.org/2000/svg">
<mask id="a" x="0" y="0" width="840" height="480" mask-type="alpha" maskUnits="userSpaceOnUse">
<rect width="840" height="480" fill="#CFDFFF"/>
</mask>
<g mask="url(#a)">
<rect width="840" height="480" fill="#CFDFFF"/>
<path d="m511.37 181.58c-16.259-53.724-74.173-85.682-120.89-109.31-3.838-1.9407-3.818-1.2488-8.636-2.0978-5.626 0.6043-12.535 2.6189-12.535 2.6189s-30.949 8.3222-40.32 19.626c-8.585 10.357-15.039 22.371-24.021 32.571-10.451 11.869-17.926 27.793-24.994 41.77-21.503 42.521-40.743 116.3-29.735 163.66 7.817 33.626 14.344 83.01 44.287 105.25 11.983 12.801 43.851 11.7 61.719 15.587 40.296 8.764 71.754-30.457 101.45-55.961 34.09-29.277 45.081-77.34 53.73-119.46 6.432-31.32 9.332-63.25-0.053-94.261z" fill="#C7B9FF" opacity=".4"/>
<path d="m307.08 371.19c2.648-23.135 2.936-41.393-1.61-64.166 0-14.86-5.266-26.846-14.495-38.998-5.713-7.522-10.816-14.661-18.52-20.835-7.751-6.212-17.922-12.424-24.848-18.9-16.457-15.388-56.761-9.805-77.648-6.73-47.466 6.987-76.558 34.272-100.31 66.287-12.396 16.708-12.654 33.181-12.654 51.996 0 28.447 5.4643 53.656 28.068 76.521 16.482 16.671 45.109 30.653 71.782 33.005 19.552 1.723 44.759 2.919 64.189 0 43.444-6.529 82.077-43.52 86.045-78.18z" fill="#C7B9FF" opacity=".4"/>
<path d="m392.64 335.91c34.256 73.138 129.77 125.01 206.47 164.03 6.301 3.205 6.155 2.296 13.8 4.243 8.661 0.184 19.088-1.256 19.088-1.256s46.82-5.529 59.535-18.701c11.651-12.068 19.705-26.675 31.998-38.468 14.306-13.724 23.301-33.272 31.986-50.342 26.421-51.929 44.119-145.17 19.101-209.06-17.766-45.369-36.142-111.14-86.478-145.44-20.793-18.832-70.245-22.915-98.721-31.099-64.219-18.456-106.7 27.429-148.71 55.664-48.23 32.412-57.357 93.418-63.825 147.05-4.81 39.88-4.018 81.172 15.755 123.39z" fill="#C7B9FF" opacity=".4"/>
</g>
<g filter="url(#b)">
<path d="m343.86 81.724h31.44c8.64 0 15.32 2.04 20.04 6.12 4.48 3.76 6.72 8.6 6.72 14.52 0 4.4-1.24 8.16-3.72 11.28-2.4 3.12-5.8 5.32-10.2 6.6 4.4 0.88 8.04 2.88 10.92 6 2.88 3.04 4.32 6.96 4.32 11.76 0 9.6-4.76 16.16-14.28 19.68-3.6 1.28-8.16 1.92-13.68 1.92h-31.56v-77.88zm31.2 65.52c4.56 0 7.84-0.92 9.84-2.76 2.08-1.84 3.12-4.28 3.12-7.32s-1.08-5.48-3.24-7.32c-2.08-1.92-5.32-2.88-9.72-2.88h-17.04v20.28h17.04zm-17.04-32.64h16.68c4.24 0 7.44-0.92 9.6-2.76s3.24-4.32 3.24-7.44c0-3.2-1.08-5.7205-3.24-7.5605-2.08-1.92-5.24-2.88-9.48-2.88h-16.8v20.64zm100.01 34.44c-3.68 7.76-9.6 11.64-17.76 11.64-10.32 0-17.12-4.04-20.4-12.12-1.2-2.8-1.8-6.2-1.8-10.2v-37.2h14.16v35.76c0 3.84 0.92 6.72 2.76 8.64 1.84 1.84 4.08 2.76 6.72 2.76 2.72 0 5-0.36 6.84-1.08 1.84-0.8 3.44-1.96 4.8-3.48 2.96-3.44 4.52-8.04 4.68-13.8v-28.8h14.16v58.44h-14.16v-10.56zm35.274-47.88h14.16v58.44h-14.16v-58.44zm-1.68-18.72c0-2.56 0.76-4.56 2.28-6 1.52-1.52 3.68-2.28 6.48-2.28 2.72 0 4.84 0.76 6.36 2.28 1.6 1.44 2.4 3.44 2.4 6s-0.8 4.6-2.4 6.12c-1.52 1.44-3.64 2.16-6.36 2.16-2.8 0-4.96-0.72-6.48-2.16-1.52-1.52-2.28-3.56-2.28-6.12zm37.455-5.16h14.16v82.32h-14.16v-82.32zm72.085 73.32c-3.6 7.12-9.12 10.68-16.56 10.68s-13.68-2.84-18.72-8.52c-5.2-5.92-7.8-13.44-7.8-22.56s2.48-16.52 7.44-22.2c4.88-5.52 10.96-8.2805 18.24-8.2805s12.76 2.9205 16.44 8.7605v-31.2h14.28v82.32h-11.64l-1.68-9zm-14.76-38.16c-4 0-7.36 1.64-10.08 4.92-2.64 3.2-3.96 7.52-3.96 12.96s1.36 9.84 4.08 13.2c2.72 3.28 6.16 4.92 10.32 4.92 3.44 0 6.52-1.36 9.24-4.08 2.8-2.8 4.2-6.32 4.2-10.56v-7.56c-0.16-4.16-1.56-7.56-4.2-10.2-2.4-2.4-5.6-3.6-9.6-3.6zm49.231-11.28h14.16v58.44h-14.16v-58.44zm-1.68-18.72c0-2.56 0.76-4.56 2.28-6 1.52-1.52 3.68-2.28 6.48-2.28 2.72 0 4.84 0.76 6.36 2.28 1.6 1.44 2.4 3.44 2.4 6s-0.8 4.6-2.4 6.12c-1.52 1.44-3.64 2.16-6.36 2.16-2.8 0-4.96-0.72-6.48-2.16-1.52-1.52-2.28-3.56-2.28-6.12zm51.375 28.92c3.84-7.76 10-11.64 18.48-11.64 7.2 0 12.6 2.3605 16.2 7.0805 3.68 4.72 5.52 10.96 5.52 18.72v34.08h-14.16v-34.08c0-4.32-1.04-7.56-3.12-9.72-2.08-2.24-5-3.36-8.76-3.36s-7 1.68-9.72 5.04c-2.64 3.36-4.04 8.4-4.2 15.12v27h-14.16v-58.32h12.36l1.56 10.08zm63.486 24.36c-4.72-4-7.08-9-7.08-15 0-6.32 2.48-11.44 7.44-15.36 4.8-3.76 10.28-5.6405 16.44-5.6405 6.24 0 11.44 1.1605 15.6 3.4805 0.48-4.5605 2.44-8.2405 5.88-11.04 3.36-2.8 7.32-4.2 11.88-4.2l-0.72 13.56c-6.88 0-10.44 2.28-10.68 6.84 2.96 3.68 4.44 7.44 4.44 11.28s-0.68 7.08-2.04 9.72c-1.36 2.56-3.2 4.72-5.52 6.48-4.8 3.84-10.64 5.76-17.52 5.76-3.92 0-7.48-0.6-10.68-1.8-3.2 0.96-4.8 2.88-4.8 5.76 0 3.6 3.04 5.4 9.12 5.4h19.56c13.28 0 19.92 4.64 19.92 13.92 0 3.12-0.8 6.16-2.4 9.12-1.52 3.04-3.76 5.72-6.72 8.04-6.56 5.12-14.8 7.68-24.72 7.68-9.6 0-17.4-1.96-23.4-5.88-5.6-3.76-8.4-8.36-8.4-13.8 0-3.6 1.08-6.48 3.24-8.64 2.24-2.08 5.16-3.4 8.76-3.96-4.72-2.88-7.08-6.44-7.08-10.68 0-2.8 0.88-5.12 2.64-6.96 1.76-1.92 4.04-3.28 6.84-4.08zm10.8 25.2c-7.52 0.32-11.28 3.16-11.28 8.52 0 2.72 1.56 4.88 4.68 6.48 3.2 1.68 6.96 2.52 11.28 2.52s7.68-0.36 10.08-1.08c2.48-0.72 4.56-1.68 6.24-2.88 3.6-2.4 5.4-5.28 5.4-8.64 0-1.44-0.52-2.64-1.56-3.6-0.96-0.88-2.4-1.32-4.32-1.32h-20.52zm18.36-40.32c0-3.28-0.92-5.92-2.76-7.92-1.76-2.08-4.48-3.12-8.16-3.12s-6.48 1.04-8.4 3.12c-1.92 2-2.88 4.64-2.88 7.92 0 3.2 0.96 5.84 2.88 7.92s4.72 3.12 8.4 3.12 6.4-1.04 8.16-3.12c1.84-2.08 2.76-4.72 2.76-7.92zm-412.96 105c0 5.52-1.56 10.24-4.68 14.16s-7.6 6.64-13.44 8.16l20.88 31.68h-18.48l-17.16-30.36h-10.8v30.36h-14.16v-77.88h28.8c9.2 0 16.36 2.2 21.48 6.6 5.04 4.24 7.56 10 7.56 17.28zm-30.36 14.16c5.2 0 9.12-1.16 11.76-3.48 2.64-2.4 3.96-5.52 3.96-9.36 0-3.92-1.2-7.04-3.6-9.36-2.4-2.4-6-3.6-10.8-3.6h-14.64v25.8h13.32zm88.027-11.52c2 2.56 3.48 5.52 4.44 8.88 1.04 3.36 1.56 6.44 1.56 9.24s-0.16 5.32-0.48 7.56h-37.68c0.16 4.72 1.32 8.56 3.48 11.52s5.44 4.44 9.84 4.44c5.84 0 9.32-2.56 10.44-7.68h14.28c-0.96 5.84-3.64 10.44-8.04 13.8-4.56 3.52-10.12 5.28-16.68 5.28-7.68 0-14.12-2.8-19.32-8.4-5.36-5.84-8.04-13.32-8.04-22.44 0-9.36 2.68-16.88 8.04-22.56 5.12-5.44 11.56-8.16 19.32-8.16 8.08 0 14.36 2.84 18.84 8.52zm-18.72 2.76c-4 0-7.12 1.32-9.36 3.96-2.24 2.56-3.56 5.88-3.96 9.96h24.84c0-6.32-2-10.56-6-12.72-1.52-0.8-3.36-1.2-5.52-1.2zm78.033 38.04c-3.68 7.76-9.6 11.64-17.76 11.64-10.32 0-17.12-4.04-20.4-12.12-1.2-2.8-1.8-6.2-1.8-10.2v-37.2h14.16v35.76c0 3.84 0.92 6.72 2.76 8.64 1.84 1.84 4.08 2.76 6.72 2.76 2.72 0 5-0.36 6.84-1.08 1.84-0.8 3.44-1.96 4.8-3.48 2.96-3.44 4.52-8.04 4.68-13.8v-28.8h14.16v58.44h-14.16v-10.56zm41.994-7.2c0.16 5.52 4.2 8.28 12.12 8.28 3.04 0 5.52-0.64 7.44-1.92 2-1.36 3-2.92 3-4.68s-0.6-3.12-1.8-4.08-3.08-1.84-5.64-2.64l-12.72-4.56c-9.44-3.28-14.16-8.64-14.16-16.08 0-4.96 2.2-8.92 6.6-11.88 4.48-3.04 10.44-4.56 17.88-4.56 7.52 0 13.28 1.64 17.28 4.92 4.08 3.28 6.2 7.4 6.36 12.36h-13.32c-0.16-1.92-1.08-3.44-2.76-4.56s-4.08-1.68-7.2-1.68-5.56 0.64-7.32 1.92c-1.68 1.2-2.52 2.6-2.52 4.2 0 2.8 2.36 4.88 7.08 6.24l13.8 5.16c4.56 1.52 8.04 3.48 10.44 5.88 2.48 2.32 3.72 5.36 3.72 9.12 0 4.8-2.28 8.96-6.84 12.48-4.72 3.68-10.96 5.52-18.72 5.52s-14-1.68-18.72-5.04c-4.72-3.44-7.12-8.24-7.2-14.4h13.2zm72.161-16.32c4.64 0 10 0.76 16.08 2.28v-5.76c0-4.08-0.84-7.08-2.52-9-1.6-2-4.28-3-8.04-3-3.68 0-6.52 0.76-8.52 2.28-2 1.44-3 3.52-3 6.24h-15.48c0-6.64 2.32-11.44 6.96-14.4 4.72-2.96 11.28-4.44 19.68-4.44 12 0 19.76 4.2 23.28 12.6 1.2 2.88 1.8 6.28 1.8 10.2v37.08h-12.36l-1.08-7.8c-3.76 6.32-9.52 9.48-17.28 9.48-7.52 0-13.36-1.84-17.52-5.52-3.84-3.52-5.76-7.96-5.76-13.32 0-5.44 2.12-9.6 6.36-12.48 4.24-2.96 10.04-4.44 17.4-4.44zm16.08 11.28c-4.72-1.28-9.12-1.92-13.2-1.92-7.68 0-11.52 2.56-11.52 7.68 0 2.16 0.88 4.04 2.64 5.64 1.76 1.52 4.56 2.28 8.4 2.28 3.92 0 7.12-1.28 9.6-3.84 2.56-2.64 3.92-5.92 4.08-9.84zm81.359-28.68c4.96 5.6 7.439 12.96 7.439 22.08s-2.6 16.64-7.8 22.56c-5.039 5.68-11.32 8.52-18.84 8.52-3.6 0-6.92-0.96-9.96-2.88-2.96-1.92-5.32-4.88-7.08-8.88l-3.48 10.08h-9.24v-82.32h14.16v31.32c3.68-5.92 9.16-8.88 16.44-8.88 7.36 0 13.481 2.8 18.361 8.4zm-34.801 18.72v7.68c0.16 4.08 1.64 7.44 4.44 10.08 2.64 2.56 5.84 3.84 9.6 3.84 3.84 0 7.12-1.64 9.84-4.92 2.721-3.36 4.081-7.76 4.081-13.2s-1.36-9.76-4.081-12.96c-2.64-3.28-5.96-4.92-9.96-4.92s-7.32 1.32-9.96 3.96-3.96 6.12-3.96 10.44zm57.151-49.56h14.16v82.32h-14.16v-82.32zm74.726 30.96c2 2.56 3.48 5.52 4.44 8.88 1.04 3.36 1.56 6.44 1.56 9.24s-0.16 5.32-0.48 7.56h-37.68c0.16 4.72 1.32 8.56 3.48 11.52s5.44 4.44 9.84 4.44c5.84 0 9.32-2.56 10.44-7.68h14.28c-0.96 5.84-3.64 10.44-8.04 13.8-4.56 3.52-10.12 5.28-16.68 5.28-7.68 0-14.12-2.8-19.32-8.4-5.36-5.84-8.04-13.32-8.04-22.44 0-9.36 2.68-16.88 8.04-22.56 5.12-5.44 11.56-8.16 19.32-8.16 8.08 0 14.36 2.84 18.84 8.52zm-18.72 2.76c-4 0-7.12 1.32-9.36 3.96-2.24 2.56-3.56 5.88-3.96 9.96h24.84c0-6.32-2-10.56-6-12.72-1.52-0.8-3.36-1.2-5.52-1.2zm-215.2 114.6c0 5.52-1.56 10.24-4.68 14.16s-7.6 6.64-13.44 8.16l20.88 31.68h-18.48l-17.16-30.36h-10.8v30.36h-14.16v-77.88h28.8c9.2 0 16.36 2.2 21.48 6.6 5.04 4.24 7.56 10 7.56 17.28zm-30.36 14.16c5.2 0 9.12-1.16 11.76-3.48 2.64-2.4 3.96-5.52 3.96-9.36 0-3.92-1.2-7.04-3.6-9.36-2.4-2.4-6-3.6-10.8-3.6h-14.64v25.8h13.32zm88.027-11.52c2 2.56 3.48 5.52 4.44 8.88 1.04 3.36 1.56 6.44 1.56 9.24s-0.16 5.32-0.48 7.56h-37.68c0.16 4.72 1.32 8.56 3.48 11.52s5.44 4.44 9.84 4.44c5.84 0 9.32-2.56 10.44-7.68h14.28c-0.96 5.84-3.64 10.44-8.04 13.8-4.56 3.52-10.12 5.28-16.68 5.28-7.68 0-14.12-2.8-19.32-8.4-5.36-5.84-8.04-13.32-8.04-22.44 0-9.36 2.68-16.88 8.04-22.56 5.12-5.44 11.56-8.16 19.32-8.16 8.08 0 14.36 2.84 18.84 8.52zm-18.72 2.76c-4 0-7.12 1.32-9.36 3.96-2.24 2.56-3.56 5.88-3.96 9.96h24.84c0-6.32-2-10.56-6-12.72-1.52-0.8-3.36-1.2-5.52-1.2zm58.473 14.52c4.64 0 10 0.76 16.08 2.28v-5.76c0-4.08-0.84-7.08-2.52-9-1.6-2-4.28-3-8.04-3-3.68 0-6.52 0.76-8.52 2.28-2 1.44-3 3.52-3 6.24h-15.48c0-6.64 2.32-11.44 6.96-14.4 4.72-2.96 11.28-4.44 19.68-4.44 12 0 19.76 4.2 23.28 12.6 1.2 2.88 1.8 6.28 1.8 10.2v37.08h-12.36l-1.08-7.8c-3.76 6.32-9.52 9.48-17.28 9.48-7.52 0-13.36-1.84-17.52-5.52-3.84-3.52-5.76-7.96-5.76-13.32 0-5.44 2.12-9.6 6.36-12.48 4.24-2.96 10.04-4.44 17.4-4.44zm16.08 11.28c-4.72-1.28-9.12-1.92-13.2-1.92-7.68 0-11.52 2.56-11.52 7.68 0 2.16 0.88 4.04 2.64 5.64 1.76 1.52 4.56 2.28 8.4 2.28 3.92 0 7.12-1.28 9.6-3.84 2.56-2.64 3.92-5.92 4.08-9.84zm54.598-37.08c3.68 0 6.96 0.64 9.84 1.92 2.96 1.2 5.44 2.8 7.44 4.8 4 3.84 6.36 8.68 7.08 14.52l-14.28 0.36c-0.64-2.56-1.84-4.68-3.6-6.36-1.68-1.68-3.64-2.52-5.88-2.52s-4.16 0.36-5.76 1.08c-1.6 0.64-3 1.68-4.2 3.12-2.72 3.36-4.08 8-4.08 13.92s1.28 10.4 3.84 13.44c2.56 2.96 5.64 4.44 9.24 4.44 3.68 0 6.32-0.84 7.92-2.52 1.68-1.76 2.52-4.12 2.52-7.08h14.28c0 6.4-2.12 11.72-6.36 15.96-4.32 4.32-10.36 6.48-18.12 6.48-7.68 0-14.12-2.8-19.32-8.4-5.52-6-8.28-13.48-8.28-22.44 0-9.44 2.76-17 8.28-22.68 5.2-5.36 11.68-8.04 19.44-8.04zm71.913 58.44c-5.28 2.08-9.44 3.12-12.48 3.12s-5.72-0.36-8.04-1.08c-2.24-0.72-4.24-1.8-6-3.24-3.68-3.28-5.52-7.8-5.52-13.56v-32.64h-8.16v-9.48h8.16v-15.36h14.16v15.36h15.84v9.48h-15.84v32.16c0 4.8 2.28 7.2 6.84 7.2 2.32 0 5.32-0.64 9-1.92l2.04 9.96z" fill="#FEFEFE"/>
</g>
<defs>
<filter id="b" x="301.18" y="69.164" width="504.88" height="339.12" color-interpolation-filters="sRGB" filterUnits="userSpaceOnUse">
<feFlood flood-opacity="0" result="BackgroundImageFix"/>
<feColorMatrix in="SourceAlpha" values="0 0 0 0 0 0 0 0 0 0 0 0 0 0 0 0 0 0 127 0"/>
<feOffset dy="1"/>
<feGaussianBlur stdDeviation="3"/>
<feColorMatrix values="0 0 0 0 0 0 0 0 0 0 0 0 0 0 0 0 0 0 0.15 0"/>
<feBlend in2="BackgroundImageFix" result="effect1_dropShadow"/>
<feBlend in="SourceGraphic" in2="effect1_dropShadow" result="shape"/>
</filter>
</defs>
</svg>
