<svg width="841" height="480" viewBox="0 0 841 480" fill="none" xmlns="http://www.w3.org/2000/svg">
<mask id="mask0" mask-type="alpha" maskUnits="userSpaceOnUse" x="0" y="0" width="841" height="480">
<rect x="0.632812" width="840" height="480" fill="#CFDFFF"/>
</mask>
<g mask="url(#mask0)">
<path d="M0.632812 0H840.633V480H0.632812V0Z" fill="#CFDFFF"/>
<path opacity="0.4" d="M275.887 157.303C256.324 155.502 240.885 155.306 221.629 158.398C209.063 158.398 198.928 161.981 188.653 168.259C182.292 172.145 176.255 175.617 171.034 180.858C165.782 186.13 160.529 193.049 155.053 197.761C142.041 208.956 146.762 236.374 149.362 250.582C155.27 282.872 178.342 302.663 205.413 318.82C219.542 327.253 233.471 327.428 249.381 327.428C273.435 327.428 294.752 323.711 314.086 308.334C328.183 297.122 340.006 277.648 341.994 259.503C343.452 246.202 344.463 229.055 341.994 215.837C336.474 186.284 305.195 160.002 275.887 157.303Z" fill="#C7B9FF"/>
<path opacity="0.4" d="M289.937 121.847C262.038 119.288 240.022 119.01 212.56 123.402C194.641 123.402 180.187 128.489 165.534 137.404C156.463 142.922 147.854 147.852 140.408 155.294C132.918 162.781 125.427 172.606 117.618 179.296C99.0621 195.194 105.795 234.127 109.502 254.303C117.928 300.155 150.831 328.257 189.436 351.201C209.584 363.175 229.449 363.424 252.138 363.424C286.441 363.424 316.84 358.146 344.412 336.311C364.516 320.39 381.377 292.736 384.212 266.971C386.291 248.083 387.733 223.734 384.212 204.965C376.34 162.999 331.733 125.679 289.937 121.847Z" fill="#C7B9FF"/>
<path opacity="0.4" d="M553.87 160.681C572.583 158.952 587.35 158.764 605.77 161.733C617.789 161.733 627.483 165.172 637.312 171.199C643.396 174.93 649.17 178.263 654.164 183.294C659.188 188.355 664.213 194.998 669.45 199.521C681.896 210.268 677.381 236.589 674.894 250.23C669.242 281.228 647.174 300.227 621.28 315.738C607.766 323.833 594.442 324.002 579.223 324.002C556.215 324.002 535.826 320.433 517.332 305.671C503.848 294.908 492.539 276.212 490.637 258.794C489.243 246.025 488.275 229.563 490.637 216.874C495.917 188.503 525.837 163.273 553.87 160.681Z" fill="#C7B9FF"/>
</g>
<g filter="url(#filter0_d)">
<path d="M66.0449 142.12H128.445V154.36H104.325V220H90.1649V154.36H66.0449V142.12Z" fill="#FEFEFE"/>
<path d="M152.112 171.16C156.112 163.8 161.952 160.12 169.632 160.12C177.312 160.12 182.952 162.48 186.552 167.2C190.232 171.92 192.072 178.16 192.072 185.92V220H177.912V185.92C177.912 181.6 176.872 178.36 174.792 176.2C172.712 173.96 169.792 172.84 166.032 172.84C162.272 172.84 159.032 174.52 156.312 177.88C153.672 181.24 152.272 186.28 152.112 193V220H137.952V137.68H152.112V171.16Z" fill="#FEFEFE"/>
<path d="M250.998 168.64C252.998 171.2 254.478 174.16 255.438 177.52C256.478 180.88 256.998 183.96 256.998 186.76C256.998 189.56 256.838 192.08 256.518 194.32H218.838C218.998 199.04 220.158 202.88 222.318 205.84C224.478 208.8 227.758 210.28 232.158 210.28C237.998 210.28 241.478 207.72 242.598 202.6H256.878C255.918 208.44 253.238 213.04 248.838 216.4C244.278 219.92 238.718 221.68 232.158 221.68C224.478 221.68 218.038 218.88 212.838 213.28C207.478 207.44 204.798 199.96 204.798 190.84C204.798 181.48 207.478 173.96 212.838 168.28C217.958 162.84 224.398 160.12 232.158 160.12C240.238 160.12 246.518 162.96 250.998 168.64ZM232.278 171.4C228.278 171.4 225.158 172.72 222.918 175.36C220.678 177.92 219.358 181.24 218.958 185.32H243.798C243.798 179 241.798 174.76 237.798 172.6C236.278 171.8 234.438 171.4 232.278 171.4Z" fill="#FEFEFE"/>
<path d="M312.462 142.12V190.6C312.462 197 314.062 201.6 317.262 204.4C320.542 207.2 324.742 208.6 329.862 208.6C334.982 208.6 339.142 207.2 342.342 204.4C345.622 201.6 347.262 197 347.262 190.6V142.12H361.422V190.6C361.422 200.52 358.662 208.2 353.142 213.64C347.622 219 339.862 221.68 329.862 221.68C319.862 221.68 312.102 219 306.582 213.64C301.062 208.2 298.302 200.52 298.302 190.6V142.12H312.462Z" fill="#FEFEFE"/>
<path d="M379.954 142.12H394.114V220H379.954V142.12Z" fill="#FEFEFE"/>
<path d="M479.991 211C476.391 218.12 470.871 221.68 463.431 221.68C455.991 221.68 449.751 218.84 444.711 213.16C439.511 207.24 436.911 199.72 436.911 190.6C436.911 181.48 439.391 174.08 444.351 168.4C449.231 162.88 455.311 160.12 462.591 160.12C469.871 160.12 475.351 163.04 479.031 168.88V137.68H493.311V220H481.671L479.991 211ZM465.231 172.84C461.231 172.84 457.871 174.48 455.151 177.76C452.511 180.96 451.191 185.28 451.191 190.72C451.191 196.16 452.551 200.56 455.271 203.92C457.991 207.2 461.431 208.84 465.591 208.84C469.031 208.84 472.111 207.48 474.831 204.76C477.631 201.96 479.031 198.44 479.031 194.2V186.64C478.871 182.48 477.471 179.08 474.831 176.44C472.431 174.04 469.231 172.84 465.231 172.84Z" fill="#FEFEFE"/>
<path d="M553.941 168.64C555.941 171.2 557.422 174.16 558.382 177.52C559.422 180.88 559.941 183.96 559.941 186.76C559.941 189.56 559.781 192.08 559.461 194.32H521.781C521.941 199.04 523.101 202.88 525.261 205.84C527.421 208.8 530.701 210.28 535.101 210.28C540.941 210.28 544.421 207.72 545.541 202.6H559.822C558.862 208.44 556.181 213.04 551.781 216.4C547.221 219.92 541.661 221.68 535.101 221.68C527.421 221.68 520.981 218.88 515.781 213.28C510.421 207.44 507.741 199.96 507.741 190.84C507.741 181.48 510.421 173.96 515.781 168.28C520.901 162.84 527.341 160.12 535.101 160.12C543.181 160.12 549.461 162.96 553.941 168.64ZM535.221 171.4C531.221 171.4 528.101 172.72 525.861 175.36C523.621 177.92 522.301 181.24 521.901 185.32H546.741C546.741 179 544.741 174.76 540.741 172.6C539.221 171.8 537.381 171.4 535.221 171.4Z" fill="#FEFEFE"/>
<path d="M582.414 202.24C582.574 207.76 586.614 210.52 594.534 210.52C597.574 210.52 600.054 209.88 601.974 208.6C603.974 207.24 604.974 205.68 604.974 203.92C604.974 202.16 604.374 200.8 603.174 199.84C601.974 198.88 600.094 198 597.534 197.2L584.814 192.64C575.374 189.36 570.654 184 570.654 176.56C570.654 171.6 572.854 167.64 577.254 164.68C581.734 161.64 587.694 160.12 595.134 160.12C602.654 160.12 608.414 161.76 612.414 165.04C616.494 168.32 618.614 172.44 618.774 177.4H605.454C605.294 175.48 604.374 173.96 602.694 172.84C601.014 171.72 598.614 171.16 595.494 171.16C592.374 171.16 589.934 171.8 588.174 173.08C586.494 174.28 585.654 175.68 585.654 177.28C585.654 180.08 588.014 182.16 592.734 183.52L606.534 188.68C611.094 190.2 614.574 192.16 616.974 194.56C619.454 196.88 620.694 199.92 620.694 203.68C620.694 208.48 618.414 212.64 613.854 216.16C609.134 219.84 602.894 221.68 595.134 221.68C587.374 221.68 581.134 220 576.414 216.64C571.694 213.2 569.294 208.4 569.214 202.24H582.414Z" fill="#FEFEFE"/>
<path d="M636.576 161.56H650.736V220H636.576V161.56ZM634.896 142.84C634.896 140.28 635.656 138.28 637.176 136.84C638.696 135.32 640.856 134.56 643.656 134.56C646.375 134.56 648.495 135.32 650.016 136.84C651.615 138.28 652.416 140.28 652.416 142.84C652.416 145.4 651.615 147.44 650.016 148.96C648.495 150.4 646.375 151.12 643.656 151.12C640.856 151.12 638.696 150.4 637.176 148.96C635.656 147.44 634.896 145.4 634.896 142.84Z" fill="#FEFEFE"/>
<path d="M677.391 196.12C672.671 192.12 670.311 187.12 670.311 181.12C670.311 174.8 672.79 169.68 677.75 165.76C682.55 162 688.031 160.12 694.191 160.12C700.431 160.12 705.631 161.28 709.791 163.6C710.271 159.04 712.231 155.36 715.671 152.56C719.031 149.76 722.991 148.36 727.551 148.36L726.831 161.92C719.951 161.92 716.391 164.2 716.151 168.76C719.111 172.44 720.591 176.2 720.591 180.04C720.591 183.88 719.911 187.12 718.551 189.76C717.191 192.32 715.351 194.48 713.031 196.24C708.231 200.08 702.391 202 695.51 202C691.591 202 688.031 201.4 684.831 200.2C681.631 201.16 680.031 203.08 680.031 205.96C680.031 209.56 683.07 211.36 689.151 211.36H708.711C721.991 211.36 728.63 216 728.63 225.28C728.63 228.4 727.83 231.44 726.23 234.4C724.71 237.44 722.471 240.12 719.51 242.44C712.951 247.56 704.711 250.12 694.791 250.12C685.191 250.12 677.391 248.16 671.391 244.24C665.791 240.48 662.99 235.88 662.99 230.44C662.99 226.84 664.07 223.96 666.23 221.8C668.47 219.72 671.391 218.4 674.99 217.84C670.271 214.96 667.911 211.4 667.911 207.16C667.911 204.36 668.791 202.04 670.551 200.2C672.311 198.28 674.591 196.92 677.391 196.12ZM688.191 221.32C680.671 221.64 676.911 224.48 676.911 229.84C676.911 232.56 678.471 234.72 681.591 236.32C684.791 238 688.55 238.84 692.87 238.84C697.19 238.84 700.551 238.48 702.951 237.76C705.431 237.04 707.511 236.08 709.191 234.88C712.791 232.48 714.591 229.6 714.591 226.24C714.591 224.8 714.07 223.6 713.031 222.64C712.07 221.76 710.631 221.32 708.711 221.32H688.191ZM706.551 181C706.551 177.72 705.631 175.08 703.791 173.08C702.031 171 699.31 169.96 695.63 169.96C691.951 169.96 689.15 171 687.23 173.08C685.31 175.08 684.35 177.72 684.35 181C684.35 184.2 685.31 186.84 687.23 188.92C689.15 191 691.951 192.04 695.63 192.04C699.31 192.04 702.031 191 703.791 188.92C705.631 186.84 706.551 184.2 706.551 181Z" fill="#FEFEFE"/>
<path d="M753.714 171.76C757.554 164 763.714 160.12 772.194 160.12C779.394 160.12 784.794 162.48 788.394 167.2C792.074 171.92 793.914 178.16 793.914 185.92V220H779.754V185.92C779.754 181.6 778.714 178.36 776.634 176.2C774.554 173.96 771.634 172.84 767.874 172.84C764.114 172.84 760.874 174.52 758.154 177.88C755.514 181.24 754.114 186.28 753.954 193V220H739.794V161.68H752.154L753.714 171.76Z" fill="#FEFEFE"/>
<path d="M300.068 288.52C305.028 294.12 307.508 301.48 307.508 310.6C307.508 319.72 304.908 327.24 299.708 333.16C294.668 338.84 288.388 341.68 280.868 341.68C277.268 341.68 273.948 340.72 270.908 338.8C267.948 336.88 265.588 333.92 263.828 329.92L260.348 340H251.108V257.68H265.268V289C268.948 283.08 274.428 280.12 281.708 280.12C289.068 280.12 295.188 282.92 300.068 288.52ZM265.268 307.24V314.92C265.428 319 266.908 322.36 269.708 325C272.348 327.56 275.548 328.84 279.308 328.84C283.148 328.84 286.428 327.2 289.148 323.92C291.868 320.56 293.228 316.16 293.228 310.72C293.228 305.28 291.868 300.96 289.148 297.76C286.508 294.48 283.188 292.84 279.188 292.84C275.188 292.84 271.868 294.16 269.228 296.8C266.588 299.44 265.268 302.92 265.268 307.24Z" fill="#FEFEFE"/>
<path d="M345.339 280.12C349.259 280.12 352.939 280.76 356.379 282.04C359.819 283.24 362.779 285.12 365.259 287.68C370.779 293.28 373.539 301.04 373.539 310.96C373.539 320.72 370.779 328.4 365.259 334C360.299 339.12 353.659 341.68 345.339 341.68C337.019 341.68 330.299 339.12 325.179 334C319.659 328.48 316.899 320.8 316.899 310.96C316.899 300.96 319.659 293.2 325.179 287.68C330.219 282.64 336.939 280.12 345.339 280.12ZM359.379 310.84C359.379 304.68 358.179 300.08 355.779 297.04C353.379 293.92 350.019 292.36 345.699 292.36C341.459 292.36 337.979 293.92 335.259 297.04C332.539 300.08 331.179 304.68 331.179 310.84C331.179 317 332.379 321.64 334.779 324.76C337.259 327.8 340.619 329.32 344.859 329.32C349.099 329.32 352.579 327.8 355.299 324.76C358.019 321.64 359.379 317 359.379 310.84Z" fill="#FEFEFE"/>
<path d="M410.908 280.12C414.828 280.12 418.508 280.76 421.948 282.04C425.388 283.24 428.348 285.12 430.828 287.68C436.348 293.28 439.108 301.04 439.108 310.96C439.108 320.72 436.348 328.4 430.828 334C425.868 339.12 419.228 341.68 410.908 341.68C402.588 341.68 395.868 339.12 390.748 334C385.228 328.48 382.468 320.8 382.468 310.96C382.468 300.96 385.228 293.2 390.748 287.68C395.788 282.64 402.508 280.12 410.908 280.12ZM424.948 310.84C424.948 304.68 423.748 300.08 421.348 297.04C418.948 293.92 415.588 292.36 411.268 292.36C407.028 292.36 403.548 293.92 400.828 297.04C398.108 300.08 396.748 304.68 396.748 310.84C396.748 317 397.948 321.64 400.348 324.76C402.828 327.8 406.188 329.32 410.428 329.32C414.668 329.32 418.148 327.8 420.868 324.76C423.588 321.64 424.948 317 424.948 310.84Z" fill="#FEFEFE"/>
<path d="M486.437 338.56C481.157 340.64 476.997 341.68 473.957 341.68C470.917 341.68 468.237 341.32 465.917 340.6C463.677 339.88 461.677 338.8 459.917 337.36C456.237 334.08 454.397 329.56 454.397 323.8V291.16H446.237V281.68H454.397V266.32H468.557V281.68H484.397V291.16H468.557V323.32C468.557 328.12 470.837 330.52 475.397 330.52C477.717 330.52 480.717 329.88 484.397 328.6L486.437 338.56Z" fill="#FEFEFE"/>
<path d="M520.701 280.12C524.381 280.12 527.661 280.76 530.541 282.04C533.501 283.24 535.981 284.84 537.981 286.84C541.981 290.68 544.341 295.52 545.061 301.36L530.781 301.72C530.141 299.16 528.941 297.04 527.181 295.36C525.501 293.68 523.54 292.84 521.301 292.84C519.061 292.84 517.141 293.2 515.541 293.92C513.941 294.56 512.541 295.6 511.341 297.04C508.621 300.4 507.261 305.04 507.261 310.96C507.261 316.88 508.541 321.36 511.101 324.4C513.661 327.36 516.741 328.84 520.341 328.84C524.021 328.84 526.661 328 528.261 326.32C529.941 324.56 530.781 322.2 530.781 319.24H545.061C545.061 325.64 542.941 330.96 538.701 335.2C534.381 339.52 528.341 341.68 520.581 341.68C512.901 341.68 506.461 338.88 501.261 333.28C495.741 327.28 492.981 319.8 492.981 310.84C492.981 301.4 495.741 293.84 501.261 288.16C506.461 282.8 512.941 280.12 520.701 280.12Z" fill="#FEFEFE"/>
<path d="M578.933 305.92C583.573 305.92 588.933 306.68 595.013 308.2V302.44C595.013 298.36 594.173 295.36 592.493 293.44C590.893 291.44 588.213 290.44 584.453 290.44C580.773 290.44 577.933 291.2 575.933 292.72C573.933 294.16 572.933 296.24 572.933 298.96H557.453C557.453 292.32 559.773 287.52 564.413 284.56C569.133 281.6 575.693 280.12 584.093 280.12C596.093 280.12 603.853 284.32 607.373 292.72C608.573 295.6 609.173 299 609.173 302.92V340H596.813L595.733 332.2C591.973 338.52 586.213 341.68 578.453 341.68C570.933 341.68 565.093 339.84 560.933 336.16C557.093 332.64 555.173 328.2 555.173 322.84C555.173 317.4 557.293 313.24 561.533 310.36C565.773 307.4 571.573 305.92 578.933 305.92ZM595.013 317.2C590.293 315.92 585.893 315.28 581.813 315.28C574.133 315.28 570.293 317.84 570.293 322.96C570.293 325.12 571.173 327 572.933 328.6C574.693 330.12 577.493 330.88 581.333 330.88C585.253 330.88 588.453 329.6 590.933 327.04C593.493 324.4 594.853 321.12 595.013 317.2Z" fill="#FEFEFE"/>
<path d="M679.251 292.72C683.011 284.32 689.612 280.12 699.052 280.12C706.012 280.12 711.411 282.48 715.251 287.2C718.931 291.68 720.771 297.92 720.771 305.92V340H706.491V305.92C706.491 301.6 705.451 298.36 703.371 296.2C701.291 293.96 698.371 292.84 694.611 292.84C690.851 292.84 687.771 294.48 685.371 297.76C682.971 301.04 681.691 306 681.531 312.64V340H667.371V305.92C667.371 301.6 666.331 298.36 664.251 296.2C662.171 293.96 659.251 292.84 655.491 292.84C651.731 292.84 648.491 294.52 645.771 297.88C643.131 301.24 641.732 306.28 641.572 313V340H627.411V281.68H639.771L641.332 291.76C645.172 284 651.332 280.12 659.812 280.12C664.692 280.12 668.732 281.24 671.932 283.48C675.211 285.72 677.651 288.8 679.251 292.72Z" fill="#FEFEFE"/>
<path d="M751.878 289.6C755.558 283.28 761.158 280.12 768.678 280.12C775.878 280.12 782.038 282.84 787.158 288.28C792.598 294.04 795.318 301.56 795.318 310.84C795.318 320.2 792.558 327.76 787.038 333.52C781.918 338.96 775.798 341.68 768.678 341.68C761.558 341.68 756.358 339.56 753.078 335.32V368.44H738.918V281.68H750.558L751.878 289.6ZM766.158 328.84C767.838 328.84 769.558 328.48 771.318 327.76C773.158 327.04 774.798 325.92 776.238 324.4C779.438 321.04 781.038 316.56 781.038 310.96C781.038 305.28 779.638 300.84 776.838 297.64C774.118 294.44 770.758 292.84 766.758 292.84C762.838 292.84 759.598 294 757.038 296.32C754.558 298.56 753.238 301.8 753.078 306.04V316.48C753.078 320.24 754.398 323.28 757.038 325.6C759.518 327.76 762.558 328.84 766.158 328.84Z" fill="#FEFEFE"/>
</g>
<defs>
<filter id="filter0_d" x="60.0449" y="129.56" width="741.273" height="245.88" filterUnits="userSpaceOnUse" color-interpolation-filters="sRGB">
<feFlood flood-opacity="0" result="BackgroundImageFix"/>
<feColorMatrix in="SourceAlpha" type="matrix" values="0 0 0 0 0 0 0 0 0 0 0 0 0 0 0 0 0 0 127 0"/>
<feOffset dy="1"/>
<feGaussianBlur stdDeviation="3"/>
<feColorMatrix type="matrix" values="0 0 0 0 0 0 0 0 0 0 0 0 0 0 0 0 0 0 0.15 0"/>
<feBlend mode="normal" in2="BackgroundImageFix" result="effect1_dropShadow"/>
<feBlend mode="normal" in="SourceGraphic" in2="effect1_dropShadow" result="shape"/>
</filter>
</defs>
</svg>
