<svg width="841" height="481" viewBox="0 0 841 481" fill="none" xmlns="http://www.w3.org/2000/svg">
<mask id="mask0" mask-type="alpha" maskUnits="userSpaceOnUse" x="0" y="0" width="840" height="481">
<rect y="0.265625" width="840" height="480" fill="#DDEAE1"/>
</mask>
<g mask="url(#mask0)">
<rect y="0.265625" width="840" height="480" fill="#DDEAE1"/>
<path opacity="0.4" d="M753.737 54.1035C736.215 50.7705 722.387 50.408 705.14 56.1296C693.886 56.1296 684.808 62.7566 675.605 74.3714C669.909 81.5611 664.502 87.9836 659.826 97.6795C655.121 107.433 650.416 120.234 645.512 128.95C633.858 149.661 638.086 200.384 640.415 226.67C645.707 286.406 666.371 323.019 690.617 352.91C703.271 368.511 715.747 368.835 729.997 368.835C751.541 368.835 770.633 361.958 787.95 333.511C800.576 312.769 811.165 276.741 812.946 243.174C814.252 218.567 815.158 186.844 812.946 162.392C808.002 107.717 779.986 59.0967 753.737 54.1035Z" fill="#C7B9FF"/>
<path opacity="0.4" d="M267.359 84.9496C231.124 81.6346 202.529 81.2741 166.863 86.9648C143.59 86.9648 124.817 93.5559 105.786 105.108C94.0053 112.259 82.8241 118.647 73.1537 128.29C63.4255 137.991 53.6959 150.722 43.5537 159.391C19.4539 179.991 28.1979 230.44 33.0132 256.583C43.9563 315.997 86.6897 352.411 136.83 382.141C162.998 397.657 188.797 397.98 218.266 397.98C262.818 397.98 302.3 391.14 338.11 362.847C364.22 342.217 386.119 306.384 389.802 272.998C392.501 248.524 394.374 216.973 389.802 192.653C379.577 138.274 321.642 89.9158 267.359 84.9496Z" fill="#C7B9FF"/>
<path opacity="0.4" d="M555.029 289.33C539.038 287.853 526.419 287.692 510.678 290.228C500.408 290.228 492.123 293.165 483.724 298.314C478.525 301.5 473.591 304.347 469.323 308.645C465.03 312.968 460.736 318.642 456.26 322.505C445.625 331.685 449.484 354.168 451.609 365.819C456.438 392.297 475.297 408.525 497.424 421.774C508.973 428.689 520.358 428.833 533.363 428.833C553.025 428.833 570.449 425.785 586.252 413.176C597.775 403.982 607.439 388.013 609.064 373.134C610.256 362.227 611.083 348.166 609.064 337.328C604.552 313.094 578.985 291.543 555.029 289.33Z" fill="#C7B9FF"/>
</g>
<g filter="url(#filter0_d)">
<path d="M244.699 106C244.699 111.52 243.139 116.24 240.019 120.16C236.899 124.08 232.419 126.8 226.579 128.32L247.459 160H228.979L211.819 129.64H201.019V160H186.859V82.1201H215.659C224.859 82.1201 232.019 84.3201 237.139 88.7201C242.179 92.9601 244.699 98.7201 244.699 106ZM214.339 120.16C219.539 120.16 223.459 119 226.099 116.68C228.739 114.28 230.059 111.16 230.059 107.32C230.059 103.4 228.859 100.28 226.459 97.9601C224.059 95.5601 220.459 94.3601 215.659 94.3601H201.019V120.16H214.339Z" fill="#FEFEFE"/>
<path d="M302.366 108.64C304.366 111.2 305.846 114.16 306.806 117.52C307.846 120.88 308.366 123.96 308.366 126.76C308.366 129.56 308.206 132.08 307.886 134.32H270.206C270.366 139.04 271.526 142.88 273.686 145.84C275.846 148.8 279.126 150.28 283.526 150.28C289.366 150.28 292.846 147.72 293.966 142.6H308.246C307.286 148.44 304.606 153.04 300.206 156.4C295.646 159.92 290.086 161.68 283.526 161.68C275.846 161.68 269.406 158.88 264.206 153.28C258.846 147.44 256.166 139.96 256.166 130.84C256.166 121.48 258.846 113.96 264.206 108.28C269.326 102.84 275.766 100.12 283.526 100.12C291.606 100.12 297.886 102.96 302.366 108.64ZM283.646 111.4C279.646 111.4 276.526 112.72 274.286 115.36C272.046 117.92 270.726 121.24 270.326 125.32H295.166C295.166 119 293.166 114.76 289.166 112.6C287.646 111.8 285.806 111.4 283.646 111.4Z" fill="#FEFEFE"/>
<path d="M330.839 142.24C330.999 147.76 335.039 150.52 342.959 150.52C345.999 150.52 348.479 149.88 350.399 148.6C352.399 147.24 353.399 145.68 353.399 143.92C353.399 142.16 352.799 140.8 351.599 139.84C350.399 138.88 348.519 138 345.959 137.2L333.239 132.64C323.799 129.36 319.079 124 319.079 116.56C319.079 111.6 321.279 107.64 325.679 104.68C330.159 101.64 336.119 100.12 343.559 100.12C351.079 100.12 356.839 101.76 360.839 105.04C364.919 108.32 367.039 112.44 367.199 117.4H353.879C353.719 115.48 352.799 113.96 351.119 112.84C349.439 111.72 347.039 111.16 343.919 111.16C340.799 111.16 338.359 111.8 336.599 113.08C334.919 114.28 334.079 115.68 334.079 117.28C334.079 120.08 336.439 122.16 341.159 123.52L354.959 128.68C359.519 130.2 362.999 132.16 365.399 134.56C367.879 136.88 369.119 139.92 369.119 143.68C369.119 148.48 366.839 152.64 362.279 156.16C357.559 159.84 351.319 161.68 343.559 161.68C335.799 161.68 329.559 160 324.839 156.64C320.119 153.2 317.719 148.4 317.639 142.24H330.839Z" fill="#FEFEFE"/>
<path d="M396.76 109.6C400.44 103.28 406.04 100.12 413.56 100.12C420.76 100.12 426.92 102.84 432.04 108.28C437.48 114.04 440.2 121.56 440.2 130.84C440.2 140.2 437.44 147.76 431.92 153.52C426.8 158.96 420.68 161.68 413.56 161.68C406.44 161.68 401.24 159.56 397.96 155.32V188.44H383.8V101.68H395.44L396.76 109.6ZM411.04 148.84C412.72 148.84 414.44 148.48 416.2 147.76C418.04 147.04 419.68 145.92 421.12 144.4C424.32 141.04 425.92 136.56 425.92 130.96C425.92 125.28 424.52 120.84 421.72 117.64C419 114.44 415.64 112.84 411.64 112.84C407.72 112.84 404.48 114 401.92 116.32C399.44 118.56 398.12 121.8 397.96 126.04V136.48C397.96 140.24 399.28 143.28 401.92 145.6C404.4 147.76 407.44 148.84 411.04 148.84Z" fill="#FEFEFE"/>
<path d="M477.562 100.12C481.482 100.12 485.162 100.76 488.602 102.04C492.042 103.24 495.002 105.12 497.482 107.68C503.002 113.28 505.762 121.04 505.762 130.96C505.762 140.72 503.002 148.4 497.482 154C492.522 159.12 485.882 161.68 477.562 161.68C469.242 161.68 462.522 159.12 457.402 154C451.882 148.48 449.122 140.8 449.122 130.96C449.122 120.96 451.882 113.2 457.402 107.68C462.442 102.64 469.162 100.12 477.562 100.12ZM491.602 130.84C491.602 124.68 490.402 120.08 488.002 117.04C485.602 113.92 482.242 112.36 477.922 112.36C473.682 112.36 470.202 113.92 467.482 117.04C464.762 120.08 463.402 124.68 463.402 130.84C463.402 137 464.602 141.64 467.002 144.76C469.482 147.8 472.842 149.32 477.082 149.32C481.322 149.32 484.802 147.8 487.522 144.76C490.242 141.64 491.602 137 491.602 130.84Z" fill="#FEFEFE"/>
<path d="M534.131 111.76C537.971 104 544.131 100.12 552.611 100.12C559.811 100.12 565.211 102.48 568.811 107.2C572.491 111.92 574.331 118.16 574.331 125.92V160H560.171V125.92C560.171 121.6 559.131 118.36 557.051 116.2C554.971 113.96 552.051 112.84 548.291 112.84C544.531 112.84 541.291 114.52 538.571 117.88C535.931 121.24 534.531 126.28 534.371 133V160H520.211V101.68H532.571L534.131 111.76Z" fill="#FEFEFE"/>
<path d="M600.496 142.24C600.656 147.76 604.696 150.52 612.616 150.52C615.656 150.52 618.136 149.88 620.056 148.6C622.056 147.24 623.056 145.68 623.056 143.92C623.056 142.16 622.456 140.8 621.256 139.84C620.056 138.88 618.176 138 615.616 137.2L602.896 132.64C593.456 129.36 588.736 124 588.736 116.56C588.736 111.6 590.936 107.64 595.336 104.68C599.816 101.64 605.776 100.12 613.216 100.12C620.736 100.12 626.496 101.76 630.496 105.04C634.576 108.32 636.696 112.44 636.856 117.4H623.536C623.376 115.48 622.456 113.96 620.776 112.84C619.096 111.72 616.696 111.16 613.576 111.16C610.456 111.16 608.016 111.8 606.256 113.08C604.576 114.28 603.736 115.68 603.736 117.28C603.736 120.08 606.096 122.16 610.816 123.52L624.616 128.68C629.176 130.2 632.656 132.16 635.056 134.56C637.536 136.88 638.776 139.92 638.776 143.68C638.776 148.48 636.496 152.64 631.936 156.16C627.216 159.84 620.976 161.68 613.216 161.68C605.456 161.68 599.216 160 594.496 156.64C589.776 153.2 587.376 148.4 587.296 142.24H600.496Z" fill="#FEFEFE"/>
<path d="M654.658 101.56H668.818V160H654.658V101.56ZM652.978 82.8401C652.978 80.2801 653.738 78.2801 655.258 76.8401C656.778 75.3201 658.938 74.5601 661.738 74.5601C664.458 74.5601 666.578 75.3201 668.098 76.8401C669.698 78.2801 670.498 80.2801 670.498 82.8401C670.498 85.4001 669.698 87.4401 668.098 88.9601C666.578 90.4001 664.458 91.1201 661.738 91.1201C658.938 91.1201 656.778 90.4001 655.258 88.9601C653.738 87.4401 652.978 85.4001 652.978 82.8401Z" fill="#FEFEFE"/>
<path d="M697.033 101.68L710.353 145.96L723.793 101.68H740.113L718.393 160H702.433L680.713 101.68H697.033Z" fill="#FEFEFE"/>
<path d="M790.939 108.64C792.939 111.2 794.419 114.16 795.379 117.52C796.419 120.88 796.939 123.96 796.939 126.76C796.939 129.56 796.779 132.08 796.459 134.32H758.779C758.939 139.04 760.099 142.88 762.259 145.84C764.419 148.8 767.699 150.28 772.099 150.28C777.939 150.28 781.419 147.72 782.539 142.6H796.819C795.859 148.44 793.179 153.04 788.779 156.4C784.219 159.92 778.659 161.68 772.099 161.68C764.419 161.68 757.979 158.88 752.779 153.28C747.419 147.44 744.739 139.96 744.739 130.84C744.739 121.48 747.419 113.96 752.779 108.28C757.899 102.84 764.339 100.12 772.099 100.12C780.179 100.12 786.459 102.96 790.939 108.64ZM772.219 111.4C768.219 111.4 765.099 112.72 762.859 115.36C760.619 117.92 759.299 121.24 758.899 125.32H783.739C783.739 119 781.739 114.76 777.739 112.6C776.219 111.8 774.379 111.4 772.219 111.4Z" fill="#FEFEFE"/>
<path d="M197.41 221.68L209.17 263.32L220.33 224.92H233.17L244.33 263.44L256.21 221.68H270.37L251.17 280H237.25L226.45 245.08L215.89 280H201.85L182.53 221.68H197.41Z" fill="#FEFEFE"/>
<path d="M321.467 228.64C323.467 231.2 324.947 234.16 325.907 237.52C326.947 240.88 327.467 243.96 327.467 246.76C327.467 249.56 327.307 252.08 326.987 254.32H289.307C289.467 259.04 290.627 262.88 292.787 265.84C294.947 268.8 298.227 270.28 302.627 270.28C308.467 270.28 311.947 267.72 313.067 262.6H327.347C326.387 268.44 323.707 273.04 319.307 276.4C314.747 279.92 309.187 281.68 302.627 281.68C294.947 281.68 288.507 278.88 283.307 273.28C277.947 267.44 275.267 259.96 275.267 250.84C275.267 241.48 277.947 233.96 283.307 228.28C288.427 222.84 294.867 220.12 302.627 220.12C310.707 220.12 316.987 222.96 321.467 228.64ZM302.747 231.4C298.747 231.4 295.627 232.72 293.387 235.36C291.147 237.92 289.827 241.24 289.427 245.32H314.267C314.267 239 312.267 234.76 308.267 232.6C306.747 231.8 304.907 231.4 302.747 231.4Z" fill="#FEFEFE"/>
<path d="M390.98 228.52C395.94 234.12 398.42 241.48 398.42 250.6C398.42 259.72 395.82 267.24 390.62 273.16C385.58 278.84 379.3 281.68 371.78 281.68C368.18 281.68 364.86 280.72 361.82 278.8C358.86 276.88 356.5 273.92 354.74 269.92L351.26 280H342.02V197.68H356.18V229C359.86 223.08 365.34 220.12 372.62 220.12C379.98 220.12 386.1 222.92 390.98 228.52ZM356.18 247.24V254.92C356.34 259 357.82 262.36 360.62 265C363.26 267.56 366.46 268.84 370.22 268.84C374.06 268.84 377.34 267.2 380.06 263.92C382.78 260.56 384.14 256.16 384.14 250.72C384.14 245.28 382.78 240.96 380.06 237.76C377.42 234.48 374.1 232.84 370.1 232.84C366.1 232.84 362.78 234.16 360.14 236.8C357.5 239.44 356.18 242.92 356.18 247.24Z" fill="#FEFEFE"/>
<path d="M479.323 271C475.723 278.12 470.203 281.68 462.763 281.68C455.323 281.68 449.083 278.84 444.043 273.16C438.843 267.24 436.243 259.72 436.243 250.6C436.243 241.48 438.723 234.08 443.683 228.4C448.563 222.88 454.643 220.12 461.923 220.12C469.203 220.12 474.683 223.04 478.363 228.88V197.68H492.643V280H481.003L479.323 271ZM464.563 232.84C460.563 232.84 457.203 234.48 454.483 237.76C451.843 240.96 450.523 245.28 450.523 250.72C450.523 256.16 451.883 260.56 454.603 263.92C457.323 267.2 460.763 268.84 464.923 268.84C468.363 268.84 471.443 267.48 474.163 264.76C476.963 261.96 478.363 258.44 478.363 254.2V246.64C478.203 242.48 476.803 239.08 474.163 236.44C471.763 234.04 468.563 232.84 464.563 232.84Z" fill="#FEFEFE"/>
<path d="M553.274 228.64C555.274 231.2 556.754 234.16 557.714 237.52C558.754 240.88 559.274 243.96 559.274 246.76C559.274 249.56 559.114 252.08 558.794 254.32H521.114C521.274 259.04 522.434 262.88 524.594 265.84C526.754 268.8 530.034 270.28 534.434 270.28C540.274 270.28 543.754 267.72 544.874 262.6H559.154C558.194 268.44 555.514 273.04 551.114 276.4C546.554 279.92 540.994 281.68 534.434 281.68C526.754 281.68 520.314 278.88 515.114 273.28C509.754 267.44 507.074 259.96 507.074 250.84C507.074 241.48 509.754 233.96 515.114 228.28C520.234 222.84 526.674 220.12 534.434 220.12C542.514 220.12 548.794 222.96 553.274 228.64ZM534.554 231.4C530.554 231.4 527.434 232.72 525.194 235.36C522.954 237.92 521.634 241.24 521.234 245.32H546.074C546.074 239 544.074 234.76 540.074 232.6C538.554 231.8 536.714 231.4 534.554 231.4Z" fill="#FEFEFE"/>
<path d="M581.746 262.24C581.906 267.76 585.946 270.52 593.866 270.52C596.906 270.52 599.386 269.88 601.306 268.6C603.306 267.24 604.306 265.68 604.306 263.92C604.306 262.16 603.706 260.8 602.506 259.84C601.306 258.88 599.426 258 596.866 257.2L584.146 252.64C574.706 249.36 569.986 244 569.986 236.56C569.986 231.6 572.186 227.64 576.586 224.68C581.066 221.64 587.026 220.12 594.466 220.12C601.986 220.12 607.746 221.76 611.746 225.04C615.826 228.32 617.946 232.44 618.106 237.4H604.786C604.626 235.48 603.706 233.96 602.026 232.84C600.346 231.72 597.946 231.16 594.826 231.16C591.706 231.16 589.266 231.8 587.506 233.08C585.826 234.28 584.986 235.68 584.986 237.28C584.986 240.08 587.346 242.16 592.066 243.52L605.866 248.68C610.426 250.2 613.906 252.16 616.306 254.56C618.786 256.88 620.026 259.92 620.026 263.68C620.026 268.48 617.746 272.64 613.186 276.16C608.466 279.84 602.226 281.68 594.466 281.68C586.706 281.68 580.466 280 575.746 276.64C571.026 273.2 568.626 268.4 568.546 262.24H581.746Z" fill="#FEFEFE"/>
<path d="M635.908 221.56H650.068V280H635.908V221.56ZM634.228 202.84C634.228 200.28 634.988 198.28 636.508 196.84C638.028 195.32 640.188 194.56 642.988 194.56C645.708 194.56 647.828 195.32 649.348 196.84C650.948 198.28 651.748 200.28 651.748 202.84C651.748 205.4 650.948 207.44 649.348 208.96C647.828 210.4 645.708 211.12 642.988 211.12C640.188 211.12 638.028 210.4 636.508 208.96C634.988 207.44 634.228 205.4 634.228 202.84Z" fill="#FEFEFE"/>
<path d="M676.723 256.12C672.003 252.12 669.643 247.12 669.643 241.12C669.643 234.8 672.123 229.68 677.083 225.76C681.883 222 687.363 220.12 693.523 220.12C699.763 220.12 704.963 221.28 709.123 223.6C709.603 219.04 711.563 215.36 715.003 212.56C718.363 209.76 722.323 208.36 726.883 208.36L726.163 221.92C719.283 221.92 715.723 224.2 715.483 228.76C718.443 232.44 719.923 236.2 719.923 240.04C719.923 243.88 719.243 247.12 717.883 249.76C716.523 252.32 714.683 254.48 712.363 256.24C707.563 260.08 701.723 262 694.843 262C690.923 262 687.363 261.4 684.163 260.2C680.963 261.16 679.363 263.08 679.363 265.96C679.363 269.56 682.403 271.36 688.483 271.36H708.043C721.323 271.36 727.963 276 727.963 285.28C727.963 288.4 727.163 291.44 725.563 294.4C724.043 297.44 721.803 300.12 718.843 302.44C712.283 307.56 704.043 310.12 694.123 310.12C684.523 310.12 676.723 308.16 670.723 304.24C665.123 300.48 662.323 295.88 662.323 290.44C662.323 286.84 663.403 283.96 665.563 281.8C667.803 279.72 670.723 278.4 674.323 277.84C669.603 274.96 667.243 271.4 667.243 267.16C667.243 264.36 668.123 262.04 669.883 260.2C671.643 258.28 673.923 256.92 676.723 256.12ZM687.523 281.32C680.003 281.64 676.243 284.48 676.243 289.84C676.243 292.56 677.803 294.72 680.923 296.32C684.123 298 687.883 298.84 692.203 298.84C696.523 298.84 699.883 298.48 702.283 297.76C704.763 297.04 706.843 296.08 708.523 294.88C712.123 292.48 713.923 289.6 713.923 286.24C713.923 284.8 713.403 283.6 712.363 282.64C711.403 281.76 709.963 281.32 708.043 281.32H687.523ZM705.883 241C705.883 237.72 704.963 235.08 703.123 233.08C701.363 231 698.643 229.96 694.963 229.96C691.283 229.96 688.483 231 686.563 233.08C684.643 235.08 683.683 237.72 683.683 241C683.683 244.2 684.643 246.84 686.563 248.92C688.483 251 691.283 252.04 694.963 252.04C698.643 252.04 701.363 251 703.123 248.92C704.963 246.84 705.883 244.2 705.883 241Z" fill="#FEFEFE"/>
<path d="M753.046 231.76C756.886 224 763.046 220.12 771.526 220.12C778.726 220.12 784.126 222.48 787.726 227.2C791.406 231.92 793.246 238.16 793.246 245.92V280H779.086V245.92C779.086 241.6 778.046 238.36 775.966 236.2C773.886 233.96 770.966 232.84 767.206 232.84C763.446 232.84 760.206 234.52 757.486 237.88C754.846 241.24 753.446 246.28 753.286 253V280H739.126V221.68H751.486L753.046 231.76Z" fill="#FEFEFE"/>
<path d="M299.4 348.52C304.36 354.12 306.84 361.48 306.84 370.6C306.84 379.72 304.24 387.24 299.04 393.16C294 398.84 287.72 401.68 280.2 401.68C276.6 401.68 273.28 400.72 270.24 398.8C267.28 396.88 264.92 393.92 263.16 389.92L259.68 400H250.44V317.68H264.6V349C268.28 343.08 273.76 340.12 281.04 340.12C288.4 340.12 294.52 342.92 299.4 348.52ZM264.6 367.24V374.92C264.76 379 266.24 382.36 269.04 385C271.68 387.56 274.88 388.84 278.64 388.84C282.48 388.84 285.76 387.2 288.48 383.92C291.2 380.56 292.56 376.16 292.56 370.72C292.56 365.28 291.2 360.96 288.48 357.76C285.84 354.48 282.52 352.84 278.52 352.84C274.52 352.84 271.2 354.16 268.56 356.8C265.92 359.44 264.6 362.92 264.6 367.24Z" fill="#FEFEFE"/>
<path d="M344.671 340.12C348.591 340.12 352.271 340.76 355.711 342.04C359.151 343.24 362.111 345.12 364.591 347.68C370.111 353.28 372.871 361.04 372.871 370.96C372.871 380.72 370.111 388.4 364.591 394C359.631 399.12 352.991 401.68 344.671 401.68C336.351 401.68 329.631 399.12 324.511 394C318.991 388.48 316.231 380.8 316.231 370.96C316.231 360.96 318.991 353.2 324.511 347.68C329.551 342.64 336.271 340.12 344.671 340.12ZM358.711 370.84C358.711 364.68 357.511 360.08 355.111 357.04C352.711 353.92 349.351 352.36 345.031 352.36C340.791 352.36 337.311 353.92 334.591 357.04C331.871 360.08 330.511 364.68 330.511 370.84C330.511 377 331.711 381.64 334.111 384.76C336.591 387.8 339.951 389.32 344.191 389.32C348.431 389.32 351.911 387.8 354.631 384.76C357.351 381.64 358.711 377 358.711 370.84Z" fill="#FEFEFE"/>
<path d="M410.24 340.12C414.16 340.12 417.84 340.76 421.28 342.04C424.72 343.24 427.68 345.12 430.16 347.68C435.68 353.28 438.44 361.04 438.44 370.96C438.44 380.72 435.68 388.4 430.16 394C425.2 399.12 418.56 401.68 410.24 401.68C401.92 401.68 395.2 399.12 390.08 394C384.56 388.48 381.8 380.8 381.8 370.96C381.8 360.96 384.56 353.2 390.08 347.68C395.12 342.64 401.84 340.12 410.24 340.12ZM424.28 370.84C424.28 364.68 423.08 360.08 420.68 357.04C418.28 353.92 414.92 352.36 410.6 352.36C406.36 352.36 402.88 353.92 400.16 357.04C397.44 360.08 396.08 364.68 396.08 370.84C396.08 377 397.28 381.64 399.68 384.76C402.16 387.8 405.52 389.32 409.76 389.32C414 389.32 417.48 387.8 420.2 384.76C422.92 381.64 424.28 377 424.28 370.84Z" fill="#FEFEFE"/>
<path d="M485.769 398.56C480.489 400.64 476.329 401.68 473.289 401.68C470.249 401.68 467.569 401.32 465.249 400.6C463.009 399.88 461.009 398.8 459.249 397.36C455.569 394.08 453.729 389.56 453.729 383.8V351.16H445.569V341.68H453.729V326.32H467.889V341.68H483.729V351.16H467.889V383.32C467.889 388.12 470.169 390.52 474.729 390.52C477.049 390.52 480.049 389.88 483.729 388.6L485.769 398.56Z" fill="#FEFEFE"/>
<path d="M520.033 340.12C523.713 340.12 526.993 340.76 529.873 342.04C532.833 343.24 535.313 344.84 537.313 346.84C541.313 350.68 543.673 355.52 544.393 361.36L530.113 361.72C529.473 359.16 528.273 357.04 526.513 355.36C524.833 353.68 522.873 352.84 520.633 352.84C518.393 352.84 516.473 353.2 514.873 353.92C513.273 354.56 511.873 355.6 510.673 357.04C507.953 360.4 506.593 365.04 506.593 370.96C506.593 376.88 507.873 381.36 510.433 384.4C512.993 387.36 516.073 388.84 519.673 388.84C523.353 388.84 525.993 388 527.593 386.32C529.273 384.56 530.113 382.2 530.113 379.24H544.393C544.393 385.64 542.273 390.96 538.033 395.2C533.713 399.52 527.673 401.68 519.913 401.68C512.233 401.68 505.793 398.88 500.593 393.28C495.073 387.28 492.313 379.8 492.313 370.84C492.313 361.4 495.073 353.84 500.593 348.16C505.793 342.8 512.273 340.12 520.033 340.12Z" fill="#FEFEFE"/>
<path d="M578.265 365.92C582.905 365.92 588.265 366.68 594.345 368.2V362.44C594.345 358.36 593.505 355.36 591.825 353.44C590.225 351.44 587.545 350.44 583.785 350.44C580.105 350.44 577.265 351.2 575.265 352.72C573.265 354.16 572.265 356.24 572.265 358.96H556.785C556.785 352.32 559.105 347.52 563.745 344.56C568.465 341.6 575.025 340.12 583.425 340.12C595.425 340.12 603.185 344.32 606.705 352.72C607.905 355.6 608.505 359 608.505 362.92V400H596.145L595.065 392.2C591.305 398.52 585.545 401.68 577.785 401.68C570.265 401.68 564.425 399.84 560.265 396.16C556.425 392.64 554.505 388.2 554.505 382.84C554.505 377.4 556.625 373.24 560.865 370.36C565.105 367.4 570.905 365.92 578.265 365.92ZM594.345 377.2C589.625 375.92 585.225 375.28 581.145 375.28C573.465 375.28 569.625 377.84 569.625 382.96C569.625 385.12 570.505 387 572.265 388.6C574.025 390.12 576.825 390.88 580.665 390.88C584.585 390.88 587.785 389.6 590.265 387.04C592.825 384.4 594.185 381.12 594.345 377.2Z" fill="#FEFEFE"/>
<path d="M678.584 352.72C682.344 344.32 688.944 340.12 698.384 340.12C705.344 340.12 710.744 342.48 714.584 347.2C718.264 351.68 720.104 357.92 720.104 365.92V400H705.824V365.92C705.824 361.6 704.784 358.36 702.704 356.2C700.624 353.96 697.704 352.84 693.944 352.84C690.184 352.84 687.104 354.48 684.704 357.76C682.304 361.04 681.024 366 680.864 372.64V400H666.704V365.92C666.704 361.6 665.664 358.36 663.584 356.2C661.504 353.96 658.584 352.84 654.824 352.84C651.064 352.84 647.824 354.52 645.104 357.88C642.464 361.24 641.064 366.28 640.904 373V400H626.744V341.68H639.104L640.664 351.76C644.504 344 650.664 340.12 659.144 340.12C664.024 340.12 668.064 341.24 671.264 343.48C674.544 345.72 676.984 348.8 678.584 352.72Z" fill="#FEFEFE"/>
<path d="M751.21 349.6C754.89 343.28 760.49 340.12 768.01 340.12C775.21 340.12 781.37 342.84 786.49 348.28C791.93 354.04 794.65 361.56 794.65 370.84C794.65 380.2 791.89 387.76 786.37 393.52C781.25 398.96 775.13 401.68 768.01 401.68C760.89 401.68 755.69 399.56 752.41 395.32V428.44H738.25V341.68H749.89L751.21 349.6ZM765.49 388.84C767.17 388.84 768.89 388.48 770.65 387.76C772.49 387.04 774.13 385.92 775.57 384.4C778.77 381.04 780.37 376.56 780.37 370.96C780.37 365.28 778.97 360.84 776.17 357.64C773.45 354.44 770.09 352.84 766.09 352.84C762.17 352.84 758.93 354 756.37 356.32C753.89 358.56 752.57 361.8 752.41 366.04V376.48C752.41 380.24 753.73 383.28 756.37 385.6C758.85 387.76 761.89 388.84 765.49 388.84Z" fill="#FEFEFE"/>
</g>
<defs>
<filter id="filter0_d" x="176.53" y="69.5601" width="626.409" height="365.88" filterUnits="userSpaceOnUse" color-interpolation-filters="sRGB">
<feFlood flood-opacity="0" result="BackgroundImageFix"/>
<feColorMatrix in="SourceAlpha" type="matrix" values="0 0 0 0 0 0 0 0 0 0 0 0 0 0 0 0 0 0 127 0"/>
<feOffset dy="1"/>
<feGaussianBlur stdDeviation="3"/>
<feColorMatrix type="matrix" values="0 0 0 0 0 0 0 0 0 0 0 0 0 0 0 0 0 0 0.15 0"/>
<feBlend mode="normal" in2="BackgroundImageFix" result="effect1_dropShadow"/>
<feBlend mode="normal" in="SourceGraphic" in2="effect1_dropShadow" result="shape"/>
</filter>
</defs>
</svg>
