<svg width="229" height="457" fill="none" xmlns="http://www.w3.org/2000/svg"><path fill-rule="evenodd" clip-rule="evenodd" d="M155.664 161.573l.197 2.345.147-.275c.021 4.729.722 9.51 1.496 14.229 2.023-1.661 3.687-3.126 3.206-5.962-1.216-4.041-2.777-7.983-4.038-12.003l-.211 1.054-.833.168.036.444zM11.1786 410.713c.3725-1.643.7791-3.383 1.16-5.031.0375-.139.3863-.17.4987-.208 2.0139-4.924 3.7761-6.046 7.6767-6.716 6.2897-1.136 12.4965-3.599 18.4382-7.25-.1387-.543-.5179-1.481-.8626-2.482.045.015.0903.028.1371.037a.8394.8394 0 00.2261.014c.403.945.8416 1.775 1.0736 2.081.7421-.478 1.568-1.003 2.2952-1.511l-.0031-.009c.6473-.448 1.4472-1.002 2.081-1.347.1188-.655 1.08-.858 1.5821-1.29.9748-.696 1.5155-1.054 2.4097-.166 1.9286-2.501 3.4819-5.146 5.009-8.565.9556-1.999 1.4251-4.211 2.7099-5.996-.0246-.014-.8414-.268-.8614-.291 14.6014-32.299 16.9408-68.239 20.0554-102.765.687-7.72 1.4058-15.512 2.745-23.006.1838-1.135.3488-2.253 1.0327-3.158-8.2055-6.751-8.2855-19.837-4.311-29.543-9.1384-24.615 8.7744-50.758 7.4525-75.88-.741-17.04 2.3309-36.785 21.6086-40.8731 2.39-1.374 5.256-1.5791 7.537-1.6161 2.054-1.036 2.378-3.3232 3.109-5.2034l.714.0044c.21-.8509.417-1.7839.598-2.6413.271-.5436.11-1.2521.964-1.1014 1.936-2.7984 17.427-4.2052 17.603.3006.559.3292.67.9719.8 1.7523.859 5.534 6.778 9.9472 12.11 9.0573l.087-.0779c22.703-.8402 31.64 15.2866 36.076 37.2656 3.467 17.077 5.67 35.584 2.955 52.69-2.651 7.752-10.684 11.481-16.899 16.257.717 1.803.784 3.791.806 5.742.081 2.251.245 4.521.445 6.743.409 2.815 1.07 7.661-2.768 7.99-1.487 33.648-4.592 67.209.153 100.956 3.94 18.663 2.431 41.245-2.439 59.505-.281.902-1.003 1.714-1.925 1.426-.468.302-.834.491-1.221.206-.228.422-.478.827-.749 1.22-.102 5.017-.671 9.939-.412 14.988.387-.044 1.237-.47 1.568-.191l.047.384.315.108c.658 1.855 1.072 3.803 1.377 5.374 1.333 2.693 3.036 7.459 2.086 10.46.046.053.302.35.342.395.227.13.269.303.324.502.647.242.713.98.78 1.735.324 1.829-.157 3.491-.323 5.28l-.009-.012s-.543.628-.544.629c-6.825.415-13.546.521-20.341.765-.512-.98-.667-2.306-1.052-3.383-8.055 5.884-22.012 3.633-32.13 2.188-4.109-.591-7.991-1.15-11.433-1.336-.224-.031-.24-.128-.246-.217-.034-1.347-.287-2.727-.161-4.035-.71-.689-.386-1.945.102-3.048 1.796-3.884 6.677-4.309 10.632-4.972 7.441-1.442 13.424-4.154 18.264-8.3-.326-.294-.621-.583-.891-.866.105-.07.211-.14.315-.21.255-.112.499-.226.722-.37.114.063.257.077.397-.002.487-.273.883-.674 1.345-.981.092.132.184.266.277.406.443-.467.944-.995 1.383-1.484.015-.135-.02-.472.145-.509 1.246.126 2.689.546 3.993 1.012 1.473-4.835 2.327-10.067 2.228-15.008-1.449 0-2.718-.013-3.798-.701-.296.079-.707.25-.783-.214-.439-1.892-.553-3.895-.663-5.832-2.243-36.647-5.659-66.094-16.993-97.138-1.088 4.311-2.915 8.794-4.578 13.085-7.565 17.932-13.015 37.272-17.6865 56.094-1.8381 7.045-3.8361 14.787-5.8095 21.759-.7654 3.352-2.3211 4.579-5.5812 4.552-2.5122.118-5.0329.081-7.5553-.096-3.4387 3.131-4.8487 7.356-5.8533 11.161.8369.622 2.1653.387 3.1439.592.8438 1.359.5518 3.258.5321 4.933-.1324 2.176-.0196 4.511-.6542 6.566-.1134 2.248-.1274 4.71-.2967 7.324 1.8642 1.079 1.5227 3.464.9036 5.746-.2767.581-10.2961.466-12.7816.441-2.9205-.169-7.0854.576-8.0431-2.622-6.9532 3.857-17.5316 2.554-25.6322 1.419-5.8791-.715-11.2053-1.381-16.9787-2.594-.0597-.027-.1435-.212-.1017-.297z" fill="#fff"/><path fill-rule="evenodd" clip-rule="evenodd" d="M74.226 389.735c-1.5668.868-2.8203 2.224-4.4652 2.976-7.1187 3.561-16.1308 1.643-21.555-4.069-.7652.016-1.3794-.82-1.2172-1.573-1.6273.143-2.9102 1.396-4.1215 2.384.1655 1.144.089 2.294-.3742 3.39-.0362.087-.1934.122-.2128 0-.1405-.833-.2852-1.672-.4744-2.496-.3415.28-.6887.546-1.0418.81-.0307.684-.7456 1.183-1.3298.947-4.7931 3.249-10.2106 5.554-15.8367 6.903-4.4021.918-6.6885.824-8.6409 5.454.7236.145 1.4354.496 2.5232.761 18.4053 2.146 36.9803-.166 55.4151 1.399.2465-4.049.467-8.094.7456-12.14.098-1.455.1407-2.925.7066-4.285-.0111-.167-.0376-.33-.0904-.458-.0097-.002-.0195-.002-.0306-.003zm-.6872-9.966c-.0595-.27.152-.497.3617-.675.2406-.406.5146-.787.8401-1.11-6.3927-.565-12.5219-2.529-18.5269-4.554-.7255 5.156-3.3006 9.839-6.2025 14.093 4.9254 5.128 12.946 6.376 19.3935 3.573-.4301-.948.4927-2.316.7274-3.295.8087-2.345 1.9159-4.587 2.8753-6.864.1642-.377.3367-.775.5314-1.168zm1.3164-.089c-.0431.03-.0876.063-.1307.09-.0265.064-.0515.128-.0779.192.0667-.072.1349-.143.203-.213.0014-.023.0028-.046.0056-.069zm59.0968 21.267c-.128.226-.262.45-.401.669.268.167 2.285 4.445 1.158 3.761-.626-.89-1.252-1.788-1.927-2.644-.188.25-.381.495-.581.736.694.498.424 1.666-.496 1.669-.328.001-.583-.067-.89-.181-4.114 3.933-9.524 6.259-14.97 7.7-4.512 1.413-13.011.691-13.241 7.114.459-.011.951.138 1.301.468 19.921 6.732 40.503-.364 60.596-2.33-.277-.556.076-1.56.811-1.516.007-4.499-1.238-8.966-3.041-13.059-10.223 9.739-17.543.212-27.856-2.118-.199-.04-.352-.139-.463-.269zm-5.271-1.748c.03 0 .105-.01.134 0 .415 1.397 1.297 2.657 2.42 3.56.299-.273.593-.553.881-.836-.75-.869-1.571-1.673-2.521-2.352-.266-.182-.577-.393-.914-.372zm39.752-179.973c.266-.972-.035-1.989-.065-2.978-.228-2.689-.538-5.4-.479-8.102.074-.973.095-1.913-.122-2.862.066-.255.294.347.362.404.014-.076.032-.153.047-.229-.109-.124-.224-.232-.349-.336-5.343 4.412-10.521 9.023-15.514 13.826-.518.496-1.281.466-1.803 0-1.082-.966-2.203-1.873-3.358-2.727-.399 1.303-1.01 2.509-1.708 3.676 4.564.556 9.067-.655 13.599-1.008 3.038-.233 6.088-.09 9.106.311.078.011.201.011.284.025zm-10.06-43.201c1.593-1.375 2.261-2.273 2.065-4.439-.942-3.201-2.164-6.312-3.207-9.479-.135.669-.146 1.354-.202 2.033.369 3.971.654 7.956 1.344 11.885zm-1.621-15.03c.023-.042.045-.084.068-.124-.034-.107-.069-.214-.104-.321.013.149.024.296.036.445zm28.734 24.445c-.01-1.698.213-3.407.312-5.102.815-14.25-.185-28.605-2.979-42.604-3.684-19.794-10.51-39.6699-34.096-40.0736-.827.7478-1.118 1.9014-1.579 2.8926-1.39 2.747-3.431 5.126-5.772 7.113-9.703 7.883-35.361 16.884-37.615-2.217-.005-.593.035-1.219.131-1.845-.213-.657-.114-1.48.036-2.219-.101-.529.054-1.136.323-1.707a.8233.8233 0 01-.122-.1249c1.058-2.0179 2.874-2.6782 4.889-3.4382.278-.2777.032-.8526-.395-.7027-.939.3291-1.904.5512-2.884.7192-.136.0238-.222.0946-.265.1847-22.874 6.9119-22.1262 25.7209-21.7747 45.5999-.3463 21.419-12.7761 41.527-9.1492 63.168 4.2811-26.114 12.7022-51.51 14.6134-78.028.1437-2.378.4973-4.726.7658-7.091.1371-.997.2868-3.787.6285-3.321 1.6327 9.12.3573 18.491-1.0125 27.57-3.0201 18.452-8.0101 36.507-11.3869 54.889-1.8633 8.172-2.0634 16.765 6.1473 21.49 8.8746 4.876 19.9163 3.896 29.5053 1.92.765-.18 1.344.218 1.619.765 1.873-3.916 6.074-5.843 8.808-9.056 2.739-3.504 4.53-7.647 7.049-11.309-.256-2.227 1.818-5.739 4.187-5.786 5.98-6.233 12.448-12.002 19.438-17.084.101-.321.374-.502.566-.789.285-.485.47-1.089.425-1.647-1.061-6.12-1.309-12.47.351-18.511-2.959-9.178-4.76-18.657-6.449-28.129-.158-.458.611-.673.725-.2.199 1.005.389 2.012.576 3.019 3.41 12.567 7.473 24.926 11.906 37.166.517 1.707 1.001 3.411.709 5.198-.253 1.042-1.836.942-2.017-.126-.354-.104-.668-.012-.945.198-.002-.004-.004-.008-.007-.011-2.12 3.027-4.931 5.53-7.791 7.899-4.899 4.157-9.703 8.426-14.228 12.989-1.075 1.387-4.685 3.864-4.94 5.739.473 3.34 3.936 4.924 6.655 6.23 3.955 1.918 7.664 4.347 10.954 7.261 7.161-6.61 14.623-12.913 22.508-18.649 4.522-3.25 10.123-6.471 11.58-12.24zm-80.262-85.5829c-.02.107-.038.2139-.056.3199.085-.118.173-.2351.266-.3462a8.722 8.722 0 01-.21.0263zM79.3951 240.95c.0765-.227.1572-.452.2378-.677-.2093-1.004-.5248-1.945-.6204-3.001-2.0281-2.057-3.2869-4.859-3.6235-7.718-.1002-.84-.1586-1.645.459-2.302.2267-.242.708-.268.9306 0 .7567.91.5606 2.28.8304 3.39.5677 2.35 1.8815 4.565 3.7641 6.061 1.0602.865 2.4141 1.957 3.6278 2.29-.9472-3.696-3.0313-7.213-3.3076-11.108-.0796-1.141-.0072-2.209.2724-3.32.2078-.692.5205-1.293.274-2.013-2.8638-1.847-5.3944-4.505-6.6797-7.716-.4572.05-.9272-.152-1.1336-.661-1.028 7.595-2.4148 15.614 1.5565 22.578.8898 1.579 2.0383 3.011 3.4122 4.197zm40.8419-17.585c1.118-1.145 2.125-2.382 3.153-3.606 1.092-1.13 2.954.631 1.027 2.286-3.359 4.19-3.24 9.415-1.645 14.268.276-1.247.496-2.486.909-3.709 1.025-3.034 2.58-5.861 4.52-8.406.468-.612 1.678-.301 1.371.577-.97 2.765-1.408 5.824-.969 8.74.206 1.359.793 2.652.873 4.033.026.477-.258 1.685.498 1.412.29-.106.549-.721.673-1.113.617-2.021.487-4.164.723-6.243.294-2.702.746-5.478 2.686-7.53.426-.452 1.055-.161 1.256.33 1.534 3.695-.053 8.279 2.675 11.52.137.15.915.91 1.042.81.214-.17-.017-1.126-.053-1.349-1.875-7.738 4.5-14.163 6.777-20.163-4.534-3.723-12.298-4.913-14.267-11.017-1.838 4.052-3.431 8.34-6.343 11.777-2.857 3.413-8.214 5.666-8.435 10.651 1.363-.792 2.426-2.158 3.529-3.268zm41.105 161.825c-3.505.054-7.026 1.14-10.501 1.083-3.209.114-6.422-.034-9.626-.228 1.211 4.769.744 10.36-.856 14.985 6.228 2.908 11.899 7.062 18.73 3.007.075-.601.279-1.196.477-1.779-.079-.323-.139-.745.157-1-.016-5.391.541-10.785 1.619-16.068zm-122.6162.072c-.4137.436 1.0601 3.833 1.4147 4.408.4202-.271.8364-.537 1.2491-.82-.3283-.977-.7706-1.912-1.4133-2.766-.1739-.23-.8596-1.158-1.2505-.822zm-26.6694 19.741c.0682-.294.3505-.562.6579-.637.8854-2.283 2.3004-4.566 4.4915-5.767 1.323-.685 2.7891-.884 4.2315-1.17 6.054-1.178 11.8082-3.573 17.065-6.743-.5164-1.458-1.0003-2.905-1.3104-4.417-.5057-1.692.8421-3.106 2.5318-2.397 1.4859.667 2.3842 2.709 2.8264 4.172.3742-.257.7692-.514 1.1754-.747.2114-.591.9097-.842 1.448-1.177.8387-.558 1.9654-1.536 2.974-.779 1.8234-2.427 3.2848-5.12 4.518-7.887.9689-1.95 1.3382-4.168 2.6958-5.909-.1906-1.206.5483-2.409 1.0417-3.481a69.247 69.247 0 001.3063-2.969c8.5437-23.213 11.5835-48.101 15.1697-72.459 2.5795-16.399 2.1876-33.224 5.8276-49.435-8.8422-7.179-8.6326-20.428-4.7837-30.221-8.2218-22.938 5.7183-45.772 7.403-68.62.5409-16.674-2.238-36.696 15.1251-46.1092 2.1985-1.211 4.56-2.1885 7.031-2.6733 2.286-1.2835 5.011-1.5962 7.599-1.6469 1.461-.7919 1.875-2.6096 2.4-4.0701.143-.5263.464-1.1192.521-1.658.006-.0472.078-.0667.09-.0125 2.028 5.3349-3.085 10.9093-8.286 11.5812-2.345 8.2568 2.588 15.6178 11.476 15.1498 10.292-.771 24.841-6.44 28.562-16.8759-1.641-.0305-3.202-.5415-4.749-1.0277-.358-.1633-.855-.1388-1.075-.5011-3.557-1.7846-6.3-5.1413-6.893-9.0874.025.0196.068.0487.136.0918a1.5575 1.5575 0 01-.167-.1236c-.05-.6055-.057-1.2109.002-1.8177.272-.2458.659-.3791 1.108-.2889 1.369.275 1.397 1.715 1.617 2.7954.197.9734.567 1.8691 1.065 2.7272 2.029 3.4416 5.909 5.8362 9.97 5.3157.185-.1666.445-.2485.697-.1654-.018.0155-.038.0307-.056.0446 23.845-.8737 32.353 17.413 36.505 37.82 3.319 14.975 4.628 30.396 3.855 45.715-.189 1.771.044 6.598-1.114 7.64-2.546 7.73-10.525 11.362-16.542 15.986.635 1.817.649 3.752.682 5.656.094 2.176.24 4.351.439 6.521.18 1.958.693 4.156-.018 6.061-.453 1.202-1.469 2.457-2.811 2.617-.361 3.285-.479 6.609-.762 9.896-.34 30.112-3.788 60.383.972 90.33 1.754 11.373 3.198 22.891 2.003 34.399-.897 8.55-2.593 17.008-4.457 25.39-.339 1.108-1.217 2.162-2.455 1.972-.427.257-.946.456-1.409.232-.065 5.354-.76 10.702-.376 16.06.258-.154.518-.305.779-.452.151-.321.452-.631.814-.439.079-.036.182.033.164.115.661 1.79 1.107 3.737 1.473 5.617 1.288 2.473 2.069 5.23 2.329 8.016.127 1.087.314 2.491-.643 3.27.332.011.745.039.845.425.47 1.151 1.239 8.235-.508 8.204-6.769.412-13.568.522-20.345.765-.369.014-.721-.271-.815-.619-.216-.791-.448-1.577-.673-2.364-10.76 5.895-36.454 2.46-42.937 1.143-1.335 0-1.422-4.152-1.335-5.417-.754-.954-.281-2.551.182-3.559 1.955-4.234 7.074-4.686 11.132-5.363 6.262-1.204 12.397-3.566 17.348-7.654-1.336-1.266-2.92-3.356-2.749-5.265.178-.83.925-1.291 1.743-1.241 1.863.156 3.219 2.113 4.269 3.455.22-.232.435-.465.65-.701.023-.499.356-.985.937-.915 1.152.137 2.272.418 3.368.79.271-1.26.772-2.49 1.051-3.755.739-3.171.913-6.413.982-9.661-1.345-.021-2.118-.086-3.163-.639-.567.167-1.21-.043-1.385-.802-.572-2.468-.603-5.017-.776-7.539-1.934-31.976-5.417-64.181-16.531-94.443-1.159 3.648-2.686 7.165-3.991 10.762-9.117 23.72-14.786 48.537-21.3728 73.027-.5578 2.057-1.124 4.11-1.704 6.16-.8099 3.494-2.5066 5.104-6.2263 5.089-2.4425.114-4.89.086-7.3305-.076-2.8836 2.722-4.2797 6.359-5.29 10.08.7361.367 2.9137-.173 3.0101.824.9131 1.491.5238 3.418.5413 5.086-.1355 2.239-.0199 4.61-.6858 6.755-.0373 2.259-.1263 4.518-.2463 6.776 1.9915 1.435 1.3953 4.292.8485 6.313.1129 1.432-11.7547.787-13.4455.912-2.7837-.228-6.8855.637-8.3586-2.387-9.2325 4.537-22.0254 1.306-31.968.387-3.5027-.513-6.99-1.12-10.4605-1.813-.5036-.101-.747-.675-.6427-1.13.3811-1.681.7734-3.358 1.1615-5.037z" fill="#2B283A"/><path fill-rule="evenodd" clip-rule="evenodd" d="M134.38 33.235l-1.201 1.4264c.665.468 1.293.9382 1.884 1.4107v-.0014c-2.736-1.7822-5.767-2.8357-9.04-2.8357-6.305 0-19.113 5.407-22.008 9.307-1.437 1.9354-4.1067 7.8771-5.4917 14.3367-1.1128 5.1902-2.7679 19.8533-1.1128 25.3631 2.1183 7.0515 9.0875 13.5689 16.2735 13.5689 7.186 0 18.342-5.1791 26.283-16.5286.363-.519 4.532-1.1206 7.506-3.0684l-.781 8.5884-.593 4.9959.131.3556c2.13 5.7513 3.818 8.7518 5.064 9.0014 1.271.2548 3.861-1.8257 7.767-6.2414l.5-2.0917c1.268-5.3359 1.902-8.2001 1.902-8.5925l-.001-.0715c-.019-.9031-.331-6.0145-.337-7.39V54.1517c-4.202-13.9444-8.211-20.9167-12.029-20.9167H134.38z" fill="#fff"/><path fill-rule="evenodd" clip-rule="evenodd" d="M144.336 28.4863c-1.236-.4777-2.667-.3874-3.84.3319-2.302-.0986-4.591 1.2456-5.792 3.2078-.025.0277-.051.0555-.075.0833l-.254.296c-.241.2826-.495.5941-.697.9158.986.0225 1.808.4237 2.381 1.234.409.5781-.528 1.1275-.946.5807l-.015-.02c-.344-.4864-.864-.6749-1.442-.6847-.166-.0028-.292-.0663-.381-.1599-.036.129-.068.2594-.097.3904-2.913-1.1311-6.053-1.4306-9.181-1.1623.137.2216.252.4591.34.7086.1.2829-.113.6077-.388.6832-.298.0817-.567-.0925-.675-.3616l-.01-.0264c-.12-.3399-.316-.6316-.58-.8579-1.472.1993-2.934.5162-4.36.9247-1.714.4915-3.412 1.0912-5.073 1.7779.281.1101.524.2962.694.6068.34.6201-.594 1.1755-.948.5827l-.013-.0219c-.034-.0636-.065-.1018-.088-.1236l-.008-.0074-.049-.0225-.091-.0261-.035-.0086c-.031-.0069-.044-.0065-.125-.011-.108-.0061-.217-.0055-.325-.0057-.255-.0001-.417-.1419-.491-.3232-.819.3692-1.628.758-2.423 1.1653l-.189.0977c-2.453 1.2794-4.777 2.9596-6.125 5.4319a.8572.8572 0 00-.095.5179c-.287.3444-.566.6999-.833 1.0609-.815 1.1054-1.412 2.3621-1.976 3.6077-1.1368 2.5051-1.9018 5.0783-2.4986 7.7611-.5774 2.5856-1.0432 5.1991-1.476 7.8125-.4797 2.9036-.8789 5.8322-.9625 8.7775-.1475 5.2505.8806 10.5314 3.8337 14.9515 2.6344 3.9437 6.6014 7.0751 11.3064 8.0777 4.785 1.0192 9.848.025 13.619-3.1578.608-.5124.524-1.5469 0-2.0718-.594-.5916-1.47-.5097-2.075 0-3.552 2.998-8.72 3.4605-12.999 1.9329-3.956-1.4136-7.055-4.6741-8.9569-8.3359-2.3203-4.4659-2.7113-9.5955-2.355-14.5363.1946-2.7134.5995-5.4045 1.0168-8.0916l.2519-1.6174c.2748-1.7519.5635-3.5014.9401-5.2355l.0881-.404c.46-2.0911.999-4.2359 1.833-6.2017.437-1.0318.962-2.026 1.501-3.0078.104-.1902.211-.3833.321-.5777.148.0514.316.0597.493.0042 1.52-.4721 3.082-.7887 4.672-.8943.724-.0483 1.45-.0558 2.174-.0276 1.241-.0721 2.516.0368 3.697.4164.116-.099.233-.1959.35-.2928a.8336.8336 0 00.095-.0121c.301-.0592.513-.273.641-.5431a.3915.3915 0 00.018-.0429c.152-.1154.304-.229.458-.3411.375.0971.703-.2144.792-.5557.083-.0562.168-.1107.253-.1658.066.0161.131.0294.195.0342.276.0198.543-.0224.788-.1539.309-.1665.507-.4351.64-.7401.468.0287.942-.1231 1.361-.3975.34-.2226.601-.5299.859-.8366 3.155-1.4046 6.584-2.2339 10.021-2.4464.339.065.675.1424 1.007.2323.079.0214.19.0634.319.1136-.767-.0925-1.543-.1016-2.33.0116-3.735.5392-6.645 3.3312-9.149 5.9666-.595-.1201-1.197.6499-.646 1.1598l4.298 3.9758c-.106.4447.405.8829.853.7761.75-.1799 1.501-.3549 2.254-.5269.784.3789 1.77.3141 2.482-.2353.033-.0255.105-.0664.168-.1069.058.0482.137.0965.168.1171.253.1672.561.2163.857.1694.304-.0482.578-.2022.815-.394.15-.1221.501-.6318.697-.6694l.019-.0021c-.131.0037.288.3924.401.4728.263.1871.553.2854.88.2495.569-.0625 1.059-.5806 1.337-1.059l.021-.0367.009-.0228.007.0246c.002.0044.003.009.005.0143.042.1126.173.2406.262.3194.254.224.568.3224.903.2639.284-.0493.523-.2206.715-.4278l.03-.033c.057-.064.431-.5658.372-.686l-.007-.0102.019-.0039c.227.0559.418-.0001.558-.1172.781-.1708 1.552-.3697 2.298-.6228.058.1639.115.3278.171.493-.407.2513-.784.6096-1.131.8651-.656.4833-1.313.9665-1.968 1.4512l-2.596 1.9115-.297-.0795c-.379-.1017-.705.1188-.844.4557l-.011.0292a2.5244 2.5244 0 01-.2.4148c-.649-.0259-1.198.3719-1.376.9423a3.698 3.698 0 00-.488.0207c-.453.0497-.759.3857-.677.8472l.007.0317.011.0513c-.263.1114-.454.3265-.496.6517-.07.1057-.127.2207-.163.3487-.19.6644.179 1.4856.375 2.122l.015.0498c.126.4183.257.8346.389 1.2506l.329 1.033c.912 2.8789 1.801 5.9143 1.063 8.9325-.157.6387.661.9276 1.015.4276.86-1.2103 1.789-2.3508 2.765-3.4456l.047-.0075c.683-.137.949-.6187 1.262-1.1098.185.0543.384.0671.575.0302.278-.0535.527-.2119.724-.412.166-.1697.319-.6049.516-.7128.246-.1349.741.0579 1.035.0145.239-.0351.462-.117.679-.2199.398.5417.662 1.1785.727 1.8651.025.261.103.4818.215.6651a5.6465 5.6465 0 00-1.241.0903c-1.518.2819-2.608 1.2178-3.22 2.612-.026.0611.053.1111.089.0528.909-1.3956 2.885-1.4664 4.321-.9748 1.524.5221 2.38 1.8621 2.684 3.391.334 1.6761-.094 3.4827-1.008 4.9102-.424.6638-1.003 1.2692-1.772 1.5136-.914.2903-1.758-.2291-2.694.0389-.637.1819-.919.7971-.803 1.4123.046.2416.131.4527.245.636-.337.6665-.648 1.3525-1.045 1.9829-.612.9735-1.352 1.7789-2.159 2.5912-.833.8388-1.681 1.6608-2.573 2.4385-.854.7457-1.834 1.2761-2.729 1.9593-.629.4791-.941 1.1512-.63 1.9205.255.636 1.118 1.1776 1.816.8901 1.337-.5499 2.507-1.4858 3.572-2.4495.988-.8943 1.848-1.9636 2.497-3.1245.613-1.0944 1.065-2.3373 1.446-3.5346l.047-.1494c.179-.5693.368-1.2095.491-1.8552.733.3999 1.727.4582 2.512.3499 1.267-.1736 2.423-.811 3.297-1.74.407-.4322.767-.9253 1.077-1.4598-.028.3253-.045.6401-.063.9266-.726.794-1.017 1.9399-.759 2.9854-.608.6244-.778 1.5616-.461 2.3595-.665.6585-.64 1.7063-.353 2.658-.786.8772-.86 2.2437-.246 3.2335l.018.0711c-.62 1.0354-.48 2.3735.297 3.2878-.531 1.027-.449 2.4084.877 2.807.483.1451.951.0212 1.302-.249-.32 1.5884-.464 3.2011-.037 4.7969.17.633.79 1.096 1.443 1.096.545 0 .941-.274 1.215-.677-.032.802.017 1.607.188 2.419.103.491.559.874 1.043.992-.174.196-.244.481-.077.777.71 1.254 2.424.734 2.54-.468.484-.361.709-.953.803-1.593.135-.933.185-1.851.338-2.7729l.059.0549.031.026.009.067c.089.455.346.774.68.965-.073.794.062 1.603.567 2.207.336.402.909.56 1.4.473a.611.611 0 00.095-.003c1.113-.148 1.756-1.201 1.464-2.168.447-.548.636-1.243.503-1.9301.867-.5729.85-1.8313.549-2.8421.909-.7158 1.251-2.0541.794-3.1176.819-1.0152.933-2.43.377-3.586.901-.7389.895-2.1655.002-2.9212.476-.943.763-2.0729.287-2.9359.336-.3697.52-.8966.481-1.4056-.057-.7477-.552-1.2642-1.167-1.6085l-.043-.2338c-.144.0179-.298-.0224-.434-.1524a2.3017 2.3017 0 00-.415-.318c-.162-.002-.301-.074-.399-.1846-.268-.0909-.556-.131-.875-.1346-.69-.0075-.715-1.0377-.072-1.1045.101-.1021.241-.1664.392-.1664l.119.0005c.277.0026.557.0197.814.1298a.92.92 0 01.391.3106c.018.1991.126.3977.361.5617.271.1894.642.2115.933.0401.407-.2399.411-.6144.364-1.0216-.103-.8907.41-1.7288.288-2.6401-.054-.4028-.188-.7507-.408-1.0316.462-.6903.544-1.5814.188-2.3391.741-.7959.869-2.0226.397-2.9803-.007-.0232-.012-.047-.02-.0699-.053-.1627-.127-.3095-.208-.4499a2.2856 2.2856 0 00-.01-2.3119c.639-.7432.659-1.9259.091-2.7266-.003-.0664-.01-.1328-.016-.1991.261-.6756.198-1.4437-.132-2.0719.118-.2715.209-.5638.267-.8751.149-.8026.072-1.583-.15-2.3662a7.6034 7.6034 0 00-.12-.3708c-.007-.5364-.028-1.0705-.055-1.6036.106-.4513.123-.9472.126-1.4076v-.2985c.005-.7598.059-1.8722-.423-2.518.309-.6976.182-1.5766-.333-2.1296.362-.6214.438-1.3845.074-2.0739a2.2338 2.2338 0 00-.201-.3121c.03-.6314-.103-1.2825-.44-1.91-.219-.4086-.546-.7622-.935-1.0453.007-.0837.011-.1673.01-.2496-.007-.3675-.089-.7364-.226-1.0807.246-.4202.361-.8938.216-1.4043-.161-.5777-.585-1.0748-1.115-1.3553a11.262 11.262 0 00-.25-1.6203c.326-.7239.066-1.6792-.67-2.1057.096-.5785.01-1.1784-.412-1.6302a1.6182 1.6182 0 00-.551-.3872c.098-.5817-.012-1.1869-.415-1.6605-.329-.3868-.817-.6217-1.313-.6563-.191-1.0118-1.16-1.7683-2.181-1.708-.128-.4455-.433-.8339-.906-1.0308a1.5582 1.5582 0 00-.366-.1021c-.83-.8365-2.067-1.4035-3.138-1.6938-1.074-.2901-2.163-.3182-3.085.0191l-.067.0253-.075-.0097a11.5731 11.5731 0 00-.976-.0653zm8.16 68.562c.287-.0893.607.1057.685.3878.082.2983-.101.5938-.389.6834-.358.1116-.735.1396-1.109.1398-.301.0003-.557-.2555-.557-.5554 0-.3015.255-.5552.557-.5555.304-.0003.528-.0114.813-.1001zm2.552-5.899c.429.0004.797.1026 1.115.4026.212.2001.217.5866 0 .7857-.22.201-.538.2127-.763.0213l-.044-.0389c-.005-.0047-.009-.0084-.012-.0116-.018-.0116-.036-.0236-.056-.0336l.037.0237c.027.0199-.037-.0126-.073-.028l-.011-.0046-.004-.0008-.028-.0022c-.054-.0028-.107-.0027-.161-.0027-.291-.0002-.569-.2552-.556-.5554.014-.3008.244-.5558.556-.5555zm-8.093-3.5238c-.602-.3687-.064-1.3117.54-.9721l.022.0128c.31.1897.691.164 1.041.1642.716.0004.718 1.1113 0 1.1108l-.118-.0004c-.514-.0039-1.035-.0398-1.485-.3153zm4.74-4.0549c.455-.0855.965-.1618 1.444-.1097l.079.0098h.148c.128 0 .252.0514.351.1322.158.0653.307.1528.443.2704.542.4692-.248 1.2521-.787.7857a.4333.4333 0 00-.103-.0649l-.03-.0125h-.595c-.054 0-.107-.0112-.158-.0275-.194.0266-.374.0648-.496.0877-.7.1315-1-.939-.296-1.0712zm.509-10.6616c.872-.4039 1.838-.4009 2.644.1598.577.401.041 1.3466-.54.9732l-.021-.0139a1.8525 1.8525 0 00-.222-.1306c-.409.1182-.822.1238-1.218-.0215l-.051-.0198-.031.0119c-.645.2988-1.211-.6584-.561-.9591zm-9.498-1.7407c.881-.0986.888-1.488 0-1.3886-1.875.21-3.576 1.0422-4.823 2.4714-.579.6647.375 1.6371.966 1.002l.018-.0201c.991-1.1365 2.328-1.8955 3.839-2.0647zm9.87-7.1337c.196-.0214.392-.0321.584-.0228.462.0222 1.025.3299.822.8859-.162.4455-.695.4632-.959.2256a4.2206 4.2206 0 00-.327.0209c-.291.0299-.579.0852-.865.1415-.7.1374-.999-.9331-.296-1.0713l.311-.0614c.105-.0205.211-.0405.317-.0589a.5458.5458 0 01.204-.0582l.037-.0013h.172zm5.529-8.6188l.065-.0088c.94-.1201 2.448-.0096 2.562 1.1844.063.6613-.894.7028-1.082.1374a7.2633 7.2633 0 00-2.083-.073c-.263-.2666-.265-.7791.173-.907.061-.1658.19-.3079.365-.333zm-21.478-2.0165c.217-.199.574-.2253.787 0 .123.1297.226.2739.307.4324l.055.1071c.009.0178.018.0355.028.0529.018.0324.039.0632.058.0946l.014.0131c.005.0054.011.0119.019.0198.2.2112.226.5788 0 .7855-.217.199-.573.2254-.787 0a1.8463 1.8463 0 01-.307-.4324l-.054-.1069a1.1349 1.1349 0 00-.029-.0529c-.018-.0325-.038-.0633-.058-.0947l-.022-.0221c-.004-.0033-.007-.0069-.011-.0108-.2-.2111-.225-.5788 0-.7856zm11.41-1.4468c.784-.5546 1.717-.5804 2.437.0868.52.4816-.244 1.2533-.768.802l-.019-.0164a.8389.8389 0 00-.057-.0482c-.094.08-.214.1307-.35.1308-.036.0001-.072 0-.107.0008l-.054.0018-.028.0024-.004.0007-.025.0106c-.046.0206-.109.0524-.022-.0017-.02.0101-.038.0221-.056.0337l-.032.029c-.21.1981-.573.2242-.781.0052-.369-.1244-.564-.7329-.134-1.0375zm-7.665-1.8197l-.014-.0045c-.687-.1959-.395-1.2681.296-1.0713.733.209 1.083.8901 1.23 1.5877.062.2935-.086.6005-.389.6834-.276.0757-.622-.0931-.684-.388-.044-.2074-.094-.3834-.173-.5467l-.048-.0932c-.023-.0425-.031-.0495-.106-.1157-.013-.0111-.071-.038-.112-.0517zm11.644-5.5951l.107-.0245c.67-.1464 1.559-.2229 1.963.4398.369.6038-.561 1.1535-.944.5827a.177.177 0 00-.02.0005l-.013.0015-.172-.0139c-.213-.0016-.418.0362-.625.0852-.697.1646-.994-.9063-.296-1.0713zm-24.042-4.2707c-.507-.5061.28-1.292.787-.7854.401.4004.788.8035 1.048 1.3121.137.2669.07.6027-.199.76-.249.1452-.624.0688-.761-.1992-.226-.4409-.511-.7245-.875-1.0875zm6.398-1.3283c.501.296.825.7837 1.022 1.3482.099.2833-.112.6075-.389.6832-.296.0814-.567-.0921-.674-.3616l-.01-.0264c-.053-.1509-.137-.3292-.241-.4638-.089-.1148-.228-.2298-.332-.268-.251-.0919-.429-.3188-.405-.5838.412.1424.795-.0288 1.029-.3278zm14.995-2.4165c.505-.4683 1.183-.5303 1.796-.2469.273.1261.341.5186.199.76-.163.2792-.487.3259-.761.1993.07.0324-.056-.0105-.111-.0262-.007.0033-.099-.0009-.131-.0004l-.038.0024c0 .0002.009.0001.028-.0006a.9371.9371 0 00-.079.0215l-.033.0115c.017-.0035-.059.0454-.08.0617l-.003.0031c-.525.4859-1.314-.2979-.787-.7854z" fill="#2B283A"/><path fill-rule="evenodd" clip-rule="evenodd" d="M120.701 76.7188c-2.384-.2889-4.695.4399-7.027.8073-1.23.1938-2.463.3385-3.708.3924-.251.0109-.501.0173-.752.0224-.023-.2203-.147-.4226-.414-.5438-.549-.2482-.988-.3602-1.59-.3362-.552.0217-1.105.0783-1.648.1775-.985.1804-1.976.5898-2.697 1.3012-1.669 1.6459-1.415 4.2898-.125 6.0826 2.664 3.7045 7.526 3.8764 11.691 3.8281l.384-.005c3.792-.0541 9.217.5103 10.939-3.7964.634-1.5837.546-3.4194-.23-4.9384-.925-1.8117-2.872-2.7553-4.823-2.9917zm-11.844 6.1681l.034.0014c1.748.0672 3.496.1145 5.245.1454-.052.4484-.105.897-.166 1.3445-.048.3521-.1.7038-.153 1.0551-.023.1488-.106.3797-.082.5271l.008.0582a.5336.5336 0 00-.232.2006c-.021.0328-.036.0659-.051.0988-1.358.0107-2.82-.0156-4.204-.262l-.003-.0301c-.025-.1765-.099-.2954-.196-.3769-.098-.563-.089-1.1629-.127-1.7215-.023-.347-.048-.6937-.073-1.0406zm6.615.1706c1.26.0214 2.521.0379 3.781.0225l.572-.0088c-.121.6469-.252 1.2915-.362 1.9426-.114.6787.485 1.1101 1.003 1.0927-.059.0096-.117.0194-.175.0275-1.618.2285-3.298.1679-4.94.1661.089-.5148.053-1.0956.066-1.5252l.002-.0666c.026-.5505.043-1.1006.053-1.6508zm8.559-.1186c-.043.3363-.128.6655-.256.972-.537 1.2948-1.771 1.899-3.075 2.1534.226-.078.406-.2655.451-.5866.113-.7985.154-1.6103.157-2.4211.909-.0084 1.825-.0278 2.723-.1177zm-19.916-.2766c.647.1525 1.4.0826 2.035.1114.595.027 1.19.0505 1.785.0746-.028.4055-.055.811-.085 1.2162-.038.5239-.042 1.0775-.142 1.5991-1.198-.4081-2.271-1.0624-3.076-2.1087-.201-.2607-.38-.5666-.517-.8926zm16.86-3.8192c1.077.2547 2.097.7928 2.645 1.7773.326.5841.469 1.2765.441 1.9588-.911-.1059-1.837-.146-2.759-.1792a40.8913 40.8913 0 00-.012-.4966l-.014-.4234c-.025-.8077-.038-1.822-.301-2.6369zm-5.578.0987l.474-.0532c1.318-.1499 2.635-.3072 3.953-.217.191.0131.384.0339.578.0622-.233.8391-.213 1.8245-.31 2.6551-.038.3211-.086.6397-.138.9569l-.229-.0106c-1.414-.0766-2.829-.1236-4.244-.1796 0-.2653-.001-.5307-.006-.7962l-.005-.2655c-.016-.6781.028-1.442-.073-2.1521zm-6.617-.1077c1.38.2224 2.806.2697 4.162.2713.542.0007 1.083-.0325 1.624-.0803-.036.2875-.054.5783-.08.8618-.054.573-.115 1.145-.181 1.7165l-.059.5001c-1.74-.0787-3.479-.1638-5.218-.252l-.245-.0131-.069-.9611c-.047-.6408-.098-1.2815-.171-1.9195l.054-.0196c.065-.0263.125-.0626.183-.1041zm-.6.2386c-.076.9061-.118 1.816-.174 2.7237l-1.146-.0612c-.191-.0104-.382-.021-.573-.032-.743-.0427-1.698-.2673-2.432-.0578-.056-.6665.135-1.3158.737-1.7636 1.058-.7864 2.405-.5064 3.588-.8091zm3.917-8.1004c-1.707-.976-5.99-1.9734-6.261 1.0934-.125 1.4112.926 2.5806 2.153 3.1024l.047.0192c1.151.4724 3.191 1.0059 4.187-.0185.829-.8526-.271-2.3813-1.301-1.6828-.529.3588-1.644.0944-2.234-.0763l-.037-.0108c-.638-.1871-1.488-.7857-1.224-1.5693.233-.6932 1.226-.8199 1.847-.8424.928-.0331 1.831.182 2.751.2519.145.0112.19-.1994.072-.2668zm-7.071-4.9314c-2.317-.1083-3.758 2.4171-3.225 4.4863.092.357.492.7075.878.6674l.097-.0089c.05-.0048.099-.011.145-.0236.367-.1014.695-.4821.669-.8768l-.007-.115c-.055-.9775.052-2.1036 1.215-2.3404.987-.2008 1.538.7475 1.55 1.6204.002.155.177.2632.314.1799.713-.4334.837-1.2956.564-2.0381-.345-.9408-1.209-1.5049-2.2-1.5512zm17.193.5414c-1.686-.5616-3.505.3356-4.321 1.8237-.287.0828-.573.3031-.533.6406.057.4854.144.7915.481 1.1596.528.5759 1.515.2814 1.734-.4275l.01-.032c.249-.9163 1.259-1.521 2.18-1.2002 1.075.3747 1.044 1.5084 1.798 2.1688.089.0776.195.09.301.0387.801-.3864.657-1.5495.372-2.2153-.375-.8735-1.103-1.6505-2.022-1.9564zm2.297-5.111c-1.367-1.3917-4.929-2.7384-5.864-.1685-.178.4895.201 1.1495.711 1.2511.836.166 1.578-.1963 2.409-.1313.672.0529 1.373.2772 1.911.693 1.488 1.1514 1.816 3.099 2.853 4.5645.05.0714.149.0414.158-.0427.236-2.1337-.682-4.642-2.178-6.1661zm-17.818-1.3701c-.907-.3197-1.934-.2924-2.845-.0088-.918.2858-1.761.8285-2.41 1.5375-.295.3219-.568.6771-.786 1.0552-.117.2004-.239.6144-.371.8608-.7139.4117-1.0191 1.3497-.3797 2.0171l.0288.0292.0859.0847c.343.3397.862.4869 1.331.3512 1.05-.3033 1.177-1.1288 1.541-2.005.24-.5788.651-1.0909 1.15-1.4671 1.179-.8887 3.111-1.1719 4.53-.7531.076.0224.164-.0737.11-.1434-.268-.3477-.423-.6331-.783-.9136-.366-.2847-.765-.4903-1.202-.6447z" fill="#2B283A"/><path fill-rule="evenodd" clip-rule="evenodd" d="M97.7608 71.526c1.277 1.5926 6.2762 3.3604 8.9362 1.4413 2.661-1.919 3.712-3.2564 4.068-5.6543.038-.2557.501-.4258.696-.2443 1.097 1.0165 1.806 2.3112 2.509 3.6092.793 1.4639 1.574 2.9369 3.015 3.9279 2.553 1.3657 7.17 1.5602 8.534.9578 2.613-1.1541 4.68-3.6222 5.15-7.0188 0 0 .478-1.5066.897-1.8237.397-.3005 2.589-.5682 2.829-.6127 4.326-.8013 9.797-1.312 13.65 1.507.521.3147 2.306 1.4968 2.332 1.2061.019-1.1385-1.273-3.7155-4.213-4.9417-3.635-1.5163-9.038-1.605-12.168-1.2704-.158.0169-.694-.1148-.732-.1312-4.743-2.0497-10.2-1.5053-15.274-.6438-.727.1408-7.237 1.7499-9.826.775-4.281-1.7447-8.8452-3.0086-13.4682-2.5114-.0386.0042-.6223 3.5405-.1676 3.7818.3618.192.9774.6839 1.1961.9532.1955.2407.3187.5399.3078.9544-.0879 2.3981.5975 4.3276 1.7287 5.7386zm17.6022-2.1398c-.543-.7839-.715-2.5448-.487-3.8295.115-.6504.338-1.1682.619-1.4259.186-.1713.399-.252.631-.24.127.0066.265.0427.41.1212 1.975-1.0661 4.366-1.45 6.634-1.3396 1.804-.0004 3.092.4249 3.965 1.0869 1.051.7966 1.524 1.9416 1.552 3.1835.032 1.4736-.574 3.0856-1.569 4.3612-.952 1.2209-2.254 2.1261-3.667 2.3349-1.604.3179-3.239.0104-4.66-.7418-1.457-.7715-2.688-2.0105-3.428-3.5109zm-15.827.8313c-.9149-1.0791-1.5231-2.4831-1.6157-3.8741-.0843-1.266.2553-2.52 1.1942-3.5563.8511-.7293 2.3555-.7414 3.9375-.3352 2.046.5251 4.162 1.6988 4.868 2.4568.166.087.32.2384.455.5634l.001.1158c.213.9841.087 1.9827-.283 2.9039-.402 1.0007-1.091 1.9091-1.93 2.6023-1.116.9175-2.281 1.1984-3.371 1.0503-1.235-.1679-2.384-.8975-3.256-1.9269z" fill="#fff"/><path fill-rule="evenodd" clip-rule="evenodd" d="M108.312 62.2197c-4.336-1.7669-8.9694-3.0404-13.6607-2.5358-.3879-.1473-.8695-.0232-1.0414.5245-1.6711 5.0817 2.0553 3.6685 2.0052 5.5681-.3906 10.6513 13.9499 12.4702 15.5629 1.5975l.029.0175c2.32 2.1611 2.809 5.6779 5.542 7.5574 5.513 4.0249 13.328.8359 14.331-6.3294l.022-.097c.337-1.4623.74-1.8249 2.402-1.8177l.262-.052c4.318-.8492 10.067-1.6124 14.044 1.3081.865.5021.906 1.793 1.636 2.3538.801.1553 1.294-.8061 1.349-1.4714.127-6.6325-11.762-7.1096-17.087-6.5404-.102-.1052-.319-.0921-.392.0388-4.815-2.0812-10.24-1.7932-15.396-.918-3.194.6173-6.349 2.0233-9.608.796zm-13.2289-1.3113c2.6013-.1299 5.0079.0122 7.5609.6364 1.346.3241 2.378.7339 3.666 1.2267 8.035 3.5534 8.961-2.7628 26.97-.2869-.233.9962-.276 1.9826-.288 2.9185-3.677-.1479-2.811 3.3572-4.189 5.8192l-.042.0743c-2.008 3.5921-6.746 5.2677-10.568 2.885-3.188-1.8552-3.499-6.5606-6.674-8.428-2.752-.108-1.653 3.5996-3.15 5.1235-2.108 2.808-6.589 3.2005-9.2318.5594-1.2401-1.2709-1.8992-2.8845-1.9356-4.6181-.0691-1.1076.1211-2.2331-.7176-3.0121-.588-.5963-1.6327-.3973-1.7526-1.2986-.0762-.533.1458-1.1111.3517-1.5993zm28.2709 1.4517c-2.584-.127-5.318.3209-7.537 1.5861-1.642-1.3047-2.045 3.8807-.955 5.3806 1.571 3.208 5.227 5.3172 8.748 4.6168 5.493-.7946 9.32-11.593-.256-11.5835zm-7.379 1.9338l.14-.0205c2.381-.3626 8.862-2.0424 11.362.6089 2.426 4.3976-3.729 11.7843-10.134 5.9007-1.782-1.8118-2.473-4.0087-1.368-6.4891zm-7.544.5621c-1.232-1.4571-7.515-4.4085-9.7048-2.5145-3.9968 4.4715 2.3418 13.5161 7.6508 9.1095 1.768-1.4729 2.931-3.8197 2.422-6.0922l-.001-.0952c-.001-.0346-.007-.0267-.044-.0697-.066-.1718-.184-.2815-.323-.3379zm-9.6493 2.7102c-1.3479-7.2983 4.2853-4.5238 8.9123-2.5758-.249.2265-.247.5357-.176.7899.488 5.4151-6.105 8.4837-8.7363 1.7859zm35.0193-4.9087c1.93.6524 14.694-.5143 15.873 5.4587-1.244-2.0131-3.822-2.8119-6.14-3.2455-3.152-.5897-6.287-.2483-9.395.3723l-.064-.6421c-.069-.6811-.141-1.3182-.274-1.9434z" fill="#2B283A"/></svg>