<svg width="203" height="296" fill="none" xmlns="http://www.w3.org/2000/svg"><path fill-rule="evenodd" clip-rule="evenodd" d="M99.0495 172.864c.2683 2.78-.2804 5.436-1.5874 7.681l-.4253.73.8094.281c1.4731.512 3.1108.761 5.0078.761 1.952 0 3.982-.27 5.613-.487l1.045-.139-.513-.901c-.413-.724-.489-1.602-.57-2.531-.022-.249-.044-.507-.074-.762-1.545-13.72-3.499-27.619-5.388-41.061-.498-3.537-1.012-7.194-1.51-10.792l-1.431.055c-.3848 6.659-.7583 13.431-1.1194 19.98-.1588 2.88-.3177 5.759-.4779 8.639-.5708 7.28-.3737 13.174.6208 18.546zm.5839 82.273c-2.101 0-4.206-.217-6.2564-.646-6.4163-1.338-12.2455-4.494-17.2057-7.347a157.371 157.371 0 00-.774-.431c-1.9419-1.079-4.3586-2.422-5.8731-4.06-1.6614-1.796-1.9474-3.587-.8997-5.634l.1657-.324-.1732-.32c-1.0848-2.005-1.0041-4.486.1961-6.033l1.0087-1.3-1.6584.175c-1.6723.176-3.3577.415-4.9877.646-1.8086.256-3.6789.521-5.5209.698l-.5119.05-.1177.489c-.0655.273-.1464.439-.7147.439-.4927 0-1.1549-.144-1.8557-.295-.8698-.188-1.8557-.402-2.8065-.402-.4181 0-.7942.04-1.15.121l-.207.048-.1473.15c-.0942.095-.2545.155-.4184.155-.1239 0-.2389-.034-.3157-.094l-.2323-.181-.2947.033c-5.135.559-9.5629 1.542-13.5361 3.004l-.018.006-.0862.037c-1.4367.616-2.9221 1.253-4.2749 1.253-.9889 0-1.792-.334-2.5274-1.052l-.2078-.202-.2932-.003c-2.9746-.027-4.3338-3.472-4.5217-5.781l-.0236-.291-.2268-.189c-5.184-4.32-8.2444-10.254-9.3564-18.141-1.0128-7.183-.2352-14.757.659-21.219 2.0686-16.745 4.2262-31.756 9.7106-45.994l.2562-.665-.6828-.244c-2.3687-.845-4.179-1.854-5.5345-3.083l-.0938-.085-.1182-.049c-1.9426-.792-2.8941-3.718-3.1394-4.596l-.0197-.071-.0342-.065c-.3964-.755-.4879-1.806-.2508-2.882l.0254-.116-.0147-.118c-.128-1.022.2969-2.09.7467-3.222.2055-.516.4179-1.051.5731-1.583.5336-1.52 1.0666-3.068 1.5823-4.564 1.1568-3.358 2.3529-6.831 3.6271-10.208l.1742-.462-.3839-.319c-.6553-.543-.4365-1.183.5086-2.714.2233-.361.4345-.703.5951-1.04 1.2114-2.079 2.5096-4.074 3.8595-5.932l.0278-.038.0221-.041c6.9264-12.8476 19.2126-19.9227 34.595-19.9227l.3136.0006.1733-.1036c2.883-1.7218 4.9411-4.6761 6.2917-9.0316l.0432-.1388-.0167-.1443c-.0462-.4014-.0969-.9277-.0795-1.4384.0439-1.2934.5544-2.4476 1.4004-3.1667 1.605-1.3644 4.0415-1.4786 6.3997-1.4786l.3386.0006c3.015.0085 5.1435.5284 6.6988 1.6363 1.8069 1.2872 2.8056 3.365 3.0531 6.3521.0739.8939.0714 1.8199.0691 2.7154l-.0006.2499.0303.0992c.2167.7099.4706 1.3921.7544 2.0277l.292.6539.664-.2948c.4294-.1905.9738-.2886 1.6647-.2996.1992-.0046.3935-.0067.5894-.0067 1.6041 0 3.3199.1454 4.9795.286 1.2503.106 2.5433.2157 3.7949.2644l.0171.0007s.1728-.0011.2504-.0011c3.0421 0 5.2471.4751 6.9391 1.4952 1.823 1.0983 3.133 2.861 4.124 5.5474 5.315 15.3985 7.5 31.9845 9.427 46.6165 1.093 7.653 1.426 15.497 1.747 23.084.34 8.007.691 16.288 1.933 24.382l.099.64.66-.043c2.904-.186 6.042-.587 9.365-1.011 5.048-.645 10.269-1.312 15.315-1.312 7.056 0 12.406 1.379 16.353 4.215 2.751 2.575 4.175 6.061 4.116 10.085-.082 5.686-3.11 11.971-7.713 16.013l-.018.016c-5.819 5.46-16.44 10.195-31.568 14.074-13.912 3.567-28.302 5.506-35.6417 6.344l-1.8165.207 1.4744 1.059c.5968.428 1.1413.806 1.6647 1.153l.3377.224.3698-.168c1.0548-.48 1.7247-.581 2.1011-.581.3341 0 .737.072.7592.415.0145.225-.1466.559-.4866.601l-1.8055.224 1.4742 1.044c.9847.697 2.4539 1.538 4.1552 2.512 5.566 3.185 13.978 7.998 12.531 12.225l-.095.278.135.261c.388.757.421 1.459.101 2.148-.687 1.475-2.836 2.595-4.66 3.05l-.031.008-.031.01c-3.175 1.099-6.507 1.656-9.9046 1.656z" fill="#fff"/><path fill-rule="evenodd" clip-rule="evenodd" d="M93.5257 227.983c.2193-.222.3116-.513.1067-.854-.7923-1.005-2.4356-.318-3.4579-.086-.386-.318-.7695-.639-1.1386-.976.1282-.79-.8282-1.316-1.2214-1.926-.3859-.449-.7491-.959-1.2118-1.335-1.1277-.874-2.6907-.283-3.9995-.322-1.008-1.274-2.046-2.507-3.0048-3.823 1.1051-1.844 1.183-4.005.8162-6.061 16.9513-6.388 31.6244-18.482 49.9574-21.278.63-.104.984-.865.827-1.423-1.279-3.031-19.657 4.79-22.404 6.206-8.102 3.853-15.6913 8.656-23.5658 12.893-1.642.867-3.4482 1.332-5.2437 1.783-2.7591-8.994-7.4264-17.238-11.0052-25.909.2324-.399.4303-.819.5981-1.251-.1187 4.769 4.5509 4.702 5.1958.178-.2661 2.358 1.5293 7.409 4.1206 4.095.6077-.833.8234-1.898.9264-2.974.1332.744.2842 1.484.452 2.221.6651 1.461 2.481-.315 2.9028-1.077.2434-.044.4711-.154.6377-.289 4.5822.632 9.9792.596 13.3413-2.997 5.703 2.173 12.014.226 17.782-.641 11.736-1.34 23.519-3.383 35.361-3.227 5.287.305 11.524 1.153 14.868 5.633 4.29 6.458 1.865 15.181-2.867 20.771-11.382 14.313-50.454 20.537-68.7733 22.669zm.3201 5.155c.2072-.055.4159-.105.6232-.153 3.3224 2.747 18.97 9.881 17.78 14.142-.421.53-1.428.65-2.065.821-1.108.298-2.228.556-3.358.76-3.653.66-7.4369.775-11.0854.022-1.3423-.202-2.554-.771-3.7766-1.321-3.9505-1.726-8.3012-3.632-12.2327-5.344-4.9944-1.967-13.7547-5.842-10.1517-12.381 3.4135 3.813 7.7463 3.48 9.9289-1.259.7527-1.439 1.4095-3.378 3.1774-3.96.9325-.626 2.1251-.756 2.9041-.059.0564-.086.1067-.208.1342-.316.8785 1.242 1.6361 2.549 2.6656 3.684-.3535.019-4.0331 2.724-2.9472 2.725 1.3065-.668 2.6045-1.225 4.0152-1.585 1.0224 1.021 2.1466 1.971 3.3117 2.849-1.1315.742-2.1479 1.651-2.9653 2.637-.0707.087.0156.199.1211.152 1.2692-.561 2.5745-1.055 3.9205-1.414zm16.8422 18.425c-12.7084 5.67-26.1623-.643-36.9997-7.374-2.5013-1.387-5.7914-3.353-5.2856-6.619 1.8422 2.677 4.8794 4.202 7.7943 5.523 4.8973 2.199 9.8269 4.327 14.7363 6.498.4637 1.528 2.6811 1.587 4.0212 1.925 5.9655 1.15 12.3775.579 17.9915-1.713-.325.956-1.388 1.394-2.258 1.76zm-50.7041-22.075c-.3139.04-.6281.076-.942.111.0324-.412-.2181-.825-.6208-.953.1809-.875.2481-1.779.151-2.666.525 1.347 2.2197.938 3.296.55 1.5378-.415 3.066-.862 4.5858-1.338.5992 1.106 1.2345 2.195 2.0147 3.196-2.8407.251-5.6548.75-8.4847 1.1zm-1.2501-4.237c-.0755.158-.1833.326-.1857.516-.0767-.656-.2265-1.303-.4542-1.923l.6399 1.407zm-1.7929-3.514c-1.3976-1.81-3.9805-3.288-6.368-2.784-.1534.033-.1571.278 0 .308 3.2074.433 6.024 2.96 6.1353 6.227.253 1.478-.7825 2.93-.4337 4.349l-.2074.012c-.0252.095-.048.18-.078.254.3465.057.4484.611.0395.709-.2419.059-.4948.089-.7525.102-1.3077-.351-2.6872-.432-3.9373-.95-1.2369-.543-.9277-2.068-1.364-3.124-.32-1.219-.6881-2.432-1.1518-3.601-.0336-.094-.1618-.073-.1726.022-.3272 2.332-.3164 4.704-.2373 7.055-.4291.043-.8558.092-1.2838.144.0277-.656-1.9559-8.657-3.0011-6.603.5262 2.257.5897 4.615.6461 6.937-3.1031.508-6.1607 1.264-9.1355 2.294-2.0963.631-4.5894 2.497-6.6245.81-1.5761-1.294-2.107-3.553-1.9584-5.474 2.0495-11.37 18.2373-12.699 27.7935-11.858.9025 2.068 1.8218 4.129 2.7531 6.186a7.6361 7.6361 0 00-.6616-1.015zm-32.5927 6.465c-.175-2.582.2625-5.796 2.1886-7.72 4.4083-3.702 10.5809-4.866 16.0895-6.206 2.5661-.503 5.1671-.837 7.7787-1.004.9265-.073 2.1035.136 2.7578-.617.3369.793.6784 1.584 1.0201 2.376-10.9669-1.427-33.8475 3.53-27.4399 18.451-1.3569-1.46-2.2559-3.237-2.3948-5.28zm54.4856-8.535c.5046 1.252 1.1218 2.445 1.9284 3.535-.9169.596-1.6648 1.476-2.1921 2.423-3.38 8.782-6.9949 4.078-11.4859-.635 3.8007-1.424 8.8346-2.491 11.7496-5.323zm-56.2595 6.748c-8.7891-8.623-10.4946-22.987-7.2477-34.279.2888-4.187 1.7631-8.177 3.0839-12.141 4.2057-12.026 9.7371-23.595 16.3712-34.518 8.2305 2.245 16.4467 4.55 24.6964 6.722 1.1361.245 2.2735.729 3.4399.799.4171.264.8354.555 1.2692.81-.6316 3.074-.0491 6.211.0983 9.303.1342 2.435-.1306 4.818-.4555 7.227-.3631 3.503-1.8578 14.899 1.1375 16.985 1.0152.486 1.9225-.955 2.36-.558.3943-.273.7623-.629 1.0619-1.02 1.1566 3.714 3.0468 7.16 4.2142 10.878 1.5532 5.464 6.6544 14.309 5.5218 19.521-.8762 3.218-4.7092 3.912-7.4755 4.964-3.1966 1.105-6.4291 2.119-9.7144 2.942-1.6036-3.38-3.1366-6.793-4.6408-10.218-6.875-15.802-12.9637-31.933-18.4052-48.257-.1018-.362-1.3531-4.288-1.5821-3.193-.0191-.113-.1618-.403-.2157-.155.9229 3.833 1.8589 7.665 2.8718 11.477-2.4883-.346-5.1635-.481-7.4407.73-.1175.063-.0312.216.085.197 2.6967-.464 5.2977.413 7.8878 1.043 3.6377 12.297 8.3312 24.283 13.2993 36.118-1.5366-.486-3.32.052-4.9237.091-5.0508.518-10.044 1.615-14.8155 3.322-5.9976 1.932-10.2381 4.45-10.4814 11.21zm-4.8386-89.739c-1.4765-1.58-2.6369-3.597-2.4126-5.736.8869-1.175 1.1806-2.708 1.6972-4.066 2.0195-5.682 3.8941-11.407 6.0923-17.028 4.6756 1.428 9.2755 3.141 13.6144 5.391.7983.405 1.5881.824 2.3684 1.259.8174.455 1.7092 1.246 2.6896 1.019-1.0715 1.507-3.2781 3.075-3.6508 4.816-.0803.551.3128 1.062.9169.939 9.4554 6.671 19.2201 13.2 28.1578 20.631 6.6928 5.262 11.8311 9.53 14.1263 18.068 1.5474 5.531 1.552 11.312 1.3244 16.999-.0443 1.105-.0455 2.237-.1354 3.349.1342.833-.1211 2.527-1.0631 2.558.0215.201.0887.388.1953.552-.0299.04-.0611.077-.0935.116a45.5127 45.5127 0 01-.1354-.681c-.7335-3.227-.8318-6.971-.7096-10.406.0515-.985-1.4694-.962-1.5545 0-.2289 2.597-.4578 5.194-.6868 7.79-.2746 1.682.1582 3.883-1.1961 5.163-1.3772-1.264-.9217-3.757-.8546-5.388.1077-2.661.2241-5.32.3236-7.98.0312-.843-1.3747-1.06-1.5343-.203a244.091 244.091 0 01-1.467 7.309c-.3175.939-.5357 5.154-2.1226 4.422-.9456-.642-.2636-4.402-.3883-5.647.0587-2.465.0934-4.926.2757-7.385.0743-.992-1.5522-1.203-1.7751-.234-.362 1.568-.7083 3.135-1.0224 4.713-.6891 2.661-.4386 6.268-2.9269 8.036-.9744-6.911.4278-13.774.6245-20.66-.1175-2.232-.5034-4.441-.8438-6.645-.3764-2.438-.5957-5.091.2853-7.442-.241-1.053-1.1878 1.795-1.2765 2.032-.7132-1.395-2.4499-1.503-3.8234-1.938-3.0528-.982-6.1798-1.721-9.2685-2.594-8.1911-2.259-16.3917-4.484-24.5946-6.703-3.2768-.901-6.7263-1.966-9.1559-4.426zm82.0239 36.759c-1.1303-6.084-1.0991-12.249-.6161-18.4.531-9.54 1.0465-19.082 1.5975-28.62 2.394 17.264 4.945 34.508 6.897 51.828.139 1.205.117 2.481.73 3.556-3.385.45-6.993.904-10.284-.239 1.4443-2.48 1.954-5.303 1.6756-8.125zm17.1024-42.854c2.559 16.362 1.099 33.012 3.581 49.356-3.443.384-6.86.951-10.268 1.575.373-2.019-.334-4.104-.457-6.137-1.85-14.502-3.894-28.994-6.601-43.37-.664-3.44-1.335-6.866-2.105-10.287.116-2.072.218-4.144.285-6.217 3.758-2.346 7.995-3.865 12.377-4.63 1.184 6.552 2.367 13.099 3.188 19.71zM87.2392 79.163a16.4547 16.4547 0 01-.4291-.7785c.4627.0175.9133.034 1.3688.109-.0204.7281.0204 1.4621.0288 2.1962-.2279-.5371-.6736-1.0272-.9685-1.5267zm77.2858 102.539c-10.93-7.894-28.882-2.865-41.543-2.053-2.414-15.72-1.429-31.697-3.679-47.443-2.072-15.731-4.257-31.681-9.461-46.7524-2.148-5.8275-5.864-7.5581-11.981-7.5112-3.1043-.1207-6.3872-.6144-9.4039-.5441-.6617.0106-1.3532.0974-1.9501.3624-.839-1.8784-1.2945-3.8952-1.5246-5.9272-.0144-.1289-.1798-.1524-.2289-.0293-.7096 1.7694-.7851 3.7005-.3993 5.5531.2794 1.3273 1.9418 6.5509 3.8727 4.5072.1533 4.2856-.7947 9.4037-5.022 11.628-7.3867 3.1987-17.5974.2861-21.8762-6.5028-.827-1.3567-1.5401-2.8002-2.4558-4.1027 6.3799-1.794 9.9611-9.3861 8.4583-15.1679-.9289 4.4967-2.6226 9.521-6.8402 12.0396-15.3586-.034-28.128 6.9132-35.3433 20.2943-1.4119 1.943-2.7172 3.962-3.9133 6.016-.6438 1.374-2.529 3.285-.9289 4.613-1.8482 4.899-3.4878 9.865-5.221 14.803-.4759 1.645-1.5642 3.371-1.3471 5.1-.235 1.066-.2242 2.327.314 3.352.5106 1.826 1.6563 4.284 3.5561 5.059 1.6121 1.462 3.6508 2.469 5.7771 3.228-5.6705 14.718-7.829 30.59-9.7503 46.14-1.8831 13.604-2.855 30.152 8.9437 39.983.2289 2.813 1.9092 6.398 5.2317 6.428 2.3011 2.244 5.1059 1.013 7.6672-.084 4.3232-1.59 8.8574-2.472 13.3628-2.963.483.375 1.2693.313 1.6996-.125 2.7291-.624 6.5118 1.906 7.0631-.386 3.519-.339 6.9996-.975 10.515-1.345-1.4815 1.909-1.3747 4.724-.2589 6.786-2.8418 5.552 3.7779 8.767 7.8255 11.045 5.4641 3.143 11.1706 6.125 17.4198 7.427 5.4942 1.148 11.2502.8 16.5512-1.034 2.785-.695 6.676-2.978 5.023-6.194 2.095-6.121-12.618-12.463-16.9465-15.528 1.7691-.219 1.8338-3.866-2.7674-1.771-.5562-.369-1.1027-.75-1.6433-1.138 18.6112-2.125 54.1552-7.97 67.6242-20.605 7.4-6.497 11.669-19.639 3.58-27.158z" fill="#2B283A"/><path fill-rule="evenodd" clip-rule="evenodd" d="M91.0273 31.6235c-8.66-4.4088-21.5638-3.9347-27.6571 4.4035-.9698 1.5826-1.9542 3.3158-2.4319 5.0792-.599 2.2768-1.6588 5.6546-1.9045 8.9293-.1428 1.9023.5063 3.7467.3302 5.3805-.1392 1.2916-1.4707.899-1.4166 2.138.1056 2.4206.1828 5.9434 1.4166 7.8486 1.1597 1.6463 3.3254 1.5453 4.5984 3.0982 1.1999 1.4624 2.237 3.0847 3.7535 4.2553 3.1744 5.8837 12.2334 7.2196 18.3405 6.6705 14.5506-2.2963 14.3796-23.8985 14.1706-35.2616.065-5.8164-4.2303-10.1219-9.1997-12.5415z" fill="#fff"/><path fill-rule="evenodd" clip-rule="evenodd" d="M103.331 44.8657c.112.0941.224.1877.327.2849 2.032 1.9101 3.031 4.8084 2.644 7.552-.334 2.3664-1.778 4.8374-3.892 6.097.32.3632.567.8008.736 1.2292.414 1.0546.384 2.1837-.067 3.2185-.46 1.0545-1.379 2.3349-2.423 2.8855-.517.2712-1.1241.3654-1.6795.1897-.3422 3.7155-1.3746 7.2622-4.0522 10.1175-2.1538 2.2978-5.0892 3.8936-8.2286 4.3313-1.7063.2363-3.4557.1676-5.1466-.155a13.6437 13.6437 0 01-2.3343-.6633l-.0279-.0107c-.831-.3189-1.6663-.6394-2.2701-1.3094-.6375-.7065-.0152-1.7705.9198-1.5678.5244.1134 1.0102.3345 1.4977.5563.3329.1515.6665.3034 1.0137.4215.7943.2688 1.6229.4772 2.4561.5854 1.6675.2189 3.3796.0419 4.9896-.4273 2.605-.7599 5.0224-2.4314 6.6033-4.6302 1.8187-2.5284 2.5628-5.564 2.8334-8.6206.2297-2.6024.2229-5.2213.2161-7.836-.0024-.9208-.0048-1.8411.0031-2.7599.0087-.982.0082-1.9641.0077-2.946-.0004-.8767-.0009-1.7532.0052-2.6296.0035-.4871.0025-.974.0014-1.4607-.0028-1.282-.0056-2.5625.0759-3.8424-.0798-.0153-.1617-.0491-.2425-.1083-.473-.3411-.8887-.7628-1.3048-1.185-.3252-.3299-.6506-.66-1.0037-.9521-.8133-.6728-1.6957-1.2629-2.6144-1.7821-3.4369-1.9439-7.4118-2.7784-11.3468-2.7145-2.1643.035-4.2877.3167-6.4028.7648l-6.5576 1.7402c-1.1835-.8175-2.5037-1.4219-3.8142-2.0218a157.831 157.831 0 01-.5403-.248c-.105.4118-.3425.8124-.5696 1.1955-.1073.181-.2123.3581-.2999.5307-.3622.7124-.6961 1.4399-.9914 2.1825-.5953 1.4946-1.0722 3.0437-1.4319 4.6118-.3561 1.5543-.5552 3.1314-.7546 4.7104l-.02.1586c-.0124.0979-.0248.1959-.0374.294-.0896.7039-.1802 1.4142-.2193 2.1201-.0165.2928-.0177.5866-.0188.8801-.0006.1417-.0011.2833-.0034.4246-.0011.0523-.005.1148-.0093.1838-.0202.323-.0494.7886.164 1.0188a.4217.4217 0 00.069.0593c1.4168-.426 3.0457.0408 3.6937 1.483.041.0908-.0598.1711-.1383.1059-1.3206-1.0988-3.6104-.4737-4.3334 1.0185-.3375.6948-.3879 1.5365-.2144 2.2814.1276.5456.3883 1.0344.6494 1.5241.1584.2971.317.5944.4462.9051.1922.4622.2848.9208.3586 1.412.007.0465.0134.0959.02.147.0369.2836.0808.6223.2694.8215.1895.2002.5222.2611.8103.3138.0719.0132.1411.0259.2045.04.4418.099.8684.2189 1.2714.4284 1.0601.5504 1.7714 1.5961 2.4644 2.6151.3359.4938.6675.9813 1.0324 1.403a20.1187 20.1187 0 002.0894 2.0847c.1779.1533.3826.2998.591.449.6289.4501 1.2928.9253 1.3658 1.6893.0329.3364-.2694.6681-.5764.752-.6941.1903-1.2092-.2217-1.716-.6269-.0511-.0408-.1021-.0816-.1532-.1217a20.3192 20.3192 0 01-1.4894-1.2861c-.9397-.8951-1.7857-1.8834-2.5462-2.931-.1524-.21-.2978-.4371-.4453-.6672-.3844-.6002-.7823-1.2214-1.3523-1.6177-.3795-.2634-.8216-.3706-1.2655-.4782-.4977-.1207-.9977-.2419-1.4145-.5845-.6817-.5606-.7772-1.2654-.8782-2.0104-.0401-.2962-.081-.5986-.16-.9009-.1261-.4799-.3485-.921-.5711-1.3627-.2516-.4989-.5034-.9985-.6172-1.5553-.382-1.8789.191-4.18 2.0367-5.1053a3.4368 3.4368 0 01.3421-.1492.6083.6083 0 01-.0972-.0873c-.2035-.2189-.2887-.584-.3548-.8675l-.0051-.0216c-.1919-.8136-.3062-1.6561-.4188-2.4864l-.0334-.2455c-.2555-1.8485-.1207-3.7272.1781-5.5628a27.6453 27.6453 0 011.3195-5.0622c-.2086-.1432-.3738-.355-.4652-.624-.1695-.4892-.0634-.987.0419-1.4809.0177-.083.0354-.166.0517-.2487.034-.1758.0716-.3516.1103-.5273-.0891-5.6828 4.7119-10.3934 9.4249-12.9984 5.2862-2.9228 11.5977-4.1497 17.6056-3.499 3.0081.3271 6.008 1.0686 8.6469 2.5818 2.407 1.3781 4.3767 3.4058 5.6726 5.8466 1.234 2.3258 1.858 4.9925 1.927 7.6138.035 1.3247-.096 2.6505-.353 3.9507-.017.0859-.035.1731-.053.2612-.12.5776-.248 1.1951-.113 1.7688.115.4942.503.8199.882 1.1387zM59.9663 59.4782c.8004-.0128 1.4801.1386 2.1761.5645.6668.4099 1.2867 1.0012 1.5878 1.7275.2496.6005-.7511.9953-1.0441.4365-.0485-.0924-.095-.1839-.141-.2742-.239-.4699-.4618-.9079-.8668-1.2925-.4581-.4365-1.1202-.8347-1.7306-1.022-.0775-.0244-.0623-.1386.0186-.1398z" fill="#2B283A"/><path fill-rule="evenodd" clip-rule="evenodd" d="M79.9987 64.3083c2.0088-.2422 3.9559.3687 5.9197.6766 1.0368.1625 2.0749.2838 3.1241.3289.2111.0092.4223.0145.6334.0188.0197-.1846.1237-.3542.3492-.4558.4621-.2081.8319-.3019 1.3393-.2818.4645.0182.9305.0656 1.3879.1488.8304.1512 1.6646.4944 2.272 1.0907 1.4059 1.3797 1.1919 3.5958.1056 5.0986-2.2443 3.1053-6.3404 3.2494-9.8486 3.2089l-.3238-.0042c-3.1943-.0454-7.7644.4277-9.2156-3.1823-.5337-1.3275-.4596-2.8663.1938-4.1395.7794-1.5186 2.4199-2.3096 4.063-2.5077zm9.978 5.1702l-.0286.0012c-1.4728.0563-2.9453.096-4.4188.1219.044.3759.0891.7519.1405 1.1269.0403.2952.0836.59.1286.8845.0191.1247.089.3183.0693.4418l-.0072.0488a.4475.4475 0 01.1954.1682c.0178.0275.0306.0552.0435.0828 1.1441.0089 2.3752-.0131 3.5415-.2197l.0023-.0251c.0212-.148.0832-.2477.1655-.316.082-.4719.0745-.9748.1062-1.443.0197-.2909.0411-.5815.0618-.8723zm-5.5729.1431c-1.0615.0179-2.1235.0317-3.1848.0188l-.4818-.0074c.1017.5422.2125 1.0826.3045 1.6284.096.5689-.4081.9305-.8444.9159.049.008.0979.0162.1469.0231 1.3631.1915 2.7784.1407 4.1617.1392-.0744-.4315-.0443-.9184-.0554-1.2785l-.0022-.0558a50.7843 50.7843 0 01-.0445-1.3837zm-7.2105-.0995c.0369.2819.1086.5579.2158.8148.4531 1.0853 1.4919 1.5918 2.5911 1.8051-.1908-.0654-.3422-.2226-.3804-.4918-.0953-.6693-.1296-1.3498-.1322-2.0294-.766-.0071-1.5371-.0233-2.2943-.0987zm16.7784-.2318c-.5453.1278-1.1791.0692-1.7142.0934-.5012.0226-1.0028.0423-1.504.0625.0236.3399.0466.6797.0716 1.0194.0323.4391.0354.9032.12 1.3404 1.0089-.342 1.9129-.8905 2.5911-1.7675a3.3921 3.3921 0 00.4355-.7482zm-14.2031-3.2014c-.9078.2135-1.7671.6645-2.2288 1.4897-.2741.4897-.3947 1.0701-.3715 1.642.7673-.0888 1.5478-.1224 2.3246-.1502.0026-.139.0059-.2778.0101-.4163l.0119-.3549c.0212-.6771.0318-1.5272.2537-2.2103zm4.6986.0827l-.3996-.0446c-1.1101-.1256-2.2195-.2575-3.3296-.1819a6.4436 6.4436 0 00-.4873.0522c.1962.7033.1797 1.5293.2617 2.2256.0317.2692.0717.5361.116.8021l.1926-.0089c1.1912-.0642 2.3835-.1036 3.5756-.1506a41.2504 41.2504 0 01.0047-.6673l.0044-.2226c.0136-.5684-.0233-1.2088.0615-1.804zm5.5745-.0902c-1.1627.1863-2.3642.226-3.5063.2274-.4561.0006-.9121-.0273-1.3677-.0674.0297.241.0451.4848.0674.7225.045.4802.0965.9597.1523 1.4388l.0499.4192a826.4099 826.4099 0 004.3953-.2112l.2068-.0111.0579-.8056c.0394-.5371.0828-1.0742.1441-1.609l-.0459-.0164a.757.757 0 01-.1538-.0872zm.5051.1999c.0641.7596.0995 1.5223.1467 2.2831l.9657-.0512c.1609-.0088.3219-.0177.4828-.0269.6258-.0358 1.43-.224 2.0486-.0484.0473-.5587-.1135-1.103-.6211-1.4783-.8911-.6593-2.0258-.4245-3.0227-.6783zm-3.2997-6.79c1.438-.8181 5.0462-1.6542 5.2747.9165.1051 1.183-.7803 2.1632-1.8142 2.6005l-.0388.0162c-.9697.396-2.6884.8432-3.5275-.0155-.6984-.7147.2279-1.9961 1.0957-1.4106.446.3007 1.3848.0791 1.8825-.064l.0311-.009c.5371-.1568 1.2531-.6586 1.031-1.3155-.1965-.581-1.0327-.6872-1.5564-.706-.7817-.0279-1.5425.1524-2.3171.2111-.1227.0093-.1605-.1671-.061-.2237zm5.957-4.1336c1.9518-.0908 3.166 2.0261 2.7172 3.7606-.0776.2992-.4146.593-.7399.5594l-.082-.0075c-.0416-.004-.0835-.0092-.1219-.0198-.3089-.0849-.5858-.4041-.5633-.7349l.0059-.0964c.0456-.8194-.0438-1.7634-1.0241-1.9618-.8314-.1683-1.2956.6266-1.3054 1.3583-.0019.1299-.1489.2206-.2645.1507-.6011-.3633-.7051-1.086-.4756-1.7084.291-.7886 1.0192-1.2614 1.8536-1.3002zm-14.4839.4537c1.4204-.4707 2.9528.2814 3.6405 1.5287.2413.0694.4822.2541.4487.537-.0484.4069-.1213.6635-.4053.972-.4443.4828-1.2764.2359-1.4611-.3583l-.0078-.0268c-.2098-.7682-1.061-1.275-1.8364-1.0061-.9058.3141-.8796 1.2644-1.5149 1.818-.0747.065-.1642.0754-.2537.0324-.6749-.3239-.5536-1.2989-.313-1.8569.3156-.7323.9289-1.3835 1.703-1.64zm-1.9346-4.2841c1.151-1.1666 4.1523-2.2954 4.9396-.1412.15.4103-.1693.9635-.5994 1.0486-.7043.1392-1.3291-.1645-2.0287-.11-.5663.0444-1.157.2323-1.6098.5808-1.2541.9652-1.53 2.5977-2.4038 3.8262-.0425.0599-.1251.0347-.133-.0358-.199-1.7885.5744-3.891 1.8351-5.1686zm15.0104-1.1485c.7638-.268 1.6287-.2451 2.3965-.0074.7734.2396 1.4834.6945 2.0304 1.2888.2482.2698.4779.5676.6621.8845.0978.168.2007.515.3119.7216.6017.345.8589 1.1313.3202 1.6907l-.0243.0246-.0721.071c-.2895.2847-.7261.4081-1.1214.2943-.8845-.2542-.992-.9462-1.2982-1.6807-.2022-.4851-.5487-.9144-.9688-1.2297-.9929-.745-2.6209-.9823-3.8163-.6313-.0636.0188-.1384-.0618-.0931-.1202.2266-.2915.3571-.5307.6604-.7658.3078-.2386.6438-.411 1.0127-.5404z" fill="#2B283A"/></svg>