<svg width="30" height="30" viewBox="0 0 30 30" fill="none" xmlns="http://www.w3.org/2000/svg">
<path opacity="0.5" d="M12.5438 0C19.4712 0 25.0876 5.61508 25.0876 12.5433C25.0876 14.4243 24.6619 16.2014 23.9204 17.8026L29.4058 25.1846C30.1777 26.2253 30.2184 27.6903 29.4053 28.7835C28.4111 30.1201 26.5218 30.3979 25.1851 29.4042L17.8062 23.918C16.2041 24.6603 14.4254 25.0866 12.5438 25.0866C5.61632 25.0866 -1.90735e-06 19.4715 -1.90735e-06 12.5443C-1.90735e-06 5.61508 5.61632 0 12.5438 0ZM12.5427 21.2398C17.3466 21.2408 21.2407 17.3475 21.2407 12.5438C21.2407 7.74012 17.3466 3.84678 12.5427 3.84678C7.74089 3.84678 3.84694 7.74012 3.84694 12.5438C3.84694 17.3475 7.73883 21.2408 12.5427 21.2398Z" fill="#2B283A"/>
</svg>
