<svg width="788" height="416" viewBox="0 0 788 416" fill="none" xmlns="http://www.w3.org/2000/svg">
<path opacity="0.2" d="M517.781 5.17794C439.585 -1.979 377.875 -2.75734 300.905 9.5287C250.681 9.5287 210.168 23.7588 169.097 48.6991C143.674 64.1376 119.544 77.9287 98.6752 98.7485C77.6811 119.693 56.6841 147.179 34.7966 165.896C-17.2122 210.369 1.65782 319.286 12.0496 375.73C35.6655 504.001 127.887 582.619 236.092 646.805C292.564 680.303 348.241 681 411.836 681C507.982 681 593.186 666.234 670.466 605.149C726.814 560.609 774.073 483.247 782.02 411.169C787.846 358.329 791.888 290.212 782.02 237.705C759.955 120.303 634.927 15.8999 517.781 5.17794Z" fill="#F9F2EC"/>
</svg>
