<svg width="524" height="302" fill="none" xmlns="http://www.w3.org/2000/svg"><path opacity=".8" d="M344.311 3.4444c-51.998-4.7608-93.034-5.2786-144.217 2.894-33.398 0-60.338 9.4659-87.648 26.0562C95.5396 42.6642 79.494 51.838 65.6165 65.6873 51.656 79.6195 37.6935 97.9034 23.1389 110.353-11.4457 139.937 1.1024 212.388 8.0127 249.935c15.704 85.326 77.0287 137.622 148.9823 180.318C194.548 452.537 231.571 453 273.86 453c63.935 0 120.594-9.823 171.983-50.456 37.47-29.628 68.896-81.089 74.18-129.035 3.875-35.149 6.563-80.461 0-115.388C505.351 80.0254 422.21 10.5766 344.311 3.4444z" fill="#F9F2EC"/></svg>